<svg width="40" height="40" viewBox="0 0 40 40" fill="none" xmlns="http://www.w3.org/2000/svg">
<path d="M24.0578 19.3749L16.875 12.0718V18.9062C16.875 19.0305 16.9244 19.1497 17.0123 19.2376C17.1002 19.3255 17.2194 19.3749 17.3437 19.3749H24.0578Z" fill="#172578"/>
<path d="M14.375 20.9375V11.25H4.6875C4.43886 11.25 4.2004 11.3488 4.02459 11.5246C3.84877 11.7004 3.75 11.9389 3.75 12.1875V37.8125C3.75 38.0611 3.84877 38.2996 4.02459 38.4754C4.2004 38.6512 4.43886 38.75 4.6875 38.75H24.0625C24.3111 38.75 24.5496 38.6512 24.7254 38.4754C24.9012 38.2996 25 38.0611 25 37.8125V21.875H15.3125C15.0639 21.875 14.8254 21.7762 14.6496 21.6004C14.4738 21.4246 14.375 21.1861 14.375 20.9375Z" fill="#172578"/>
<path d="M28.5937 9.3749H35.3078L28.125 2.07178V8.90615C28.125 9.03047 28.1744 9.1497 28.2623 9.23761C28.3502 9.32552 28.4694 9.3749 28.5937 9.3749Z" fill="#172578"/>
<path d="M26.5625 11.875C26.3139 11.875 26.0754 11.7762 25.8996 11.6004C25.7238 11.4246 25.625 11.1861 25.625 10.9375V1.25H13.4375C13.1889 1.25 12.9504 1.34877 12.7746 1.52459C12.5988 1.7004 12.5 1.93886 12.5 2.1875V8.75H15.7906C16.2106 8.75168 16.6262 8.83633 17.0134 8.9991C17.4006 9.16186 17.7518 9.39952 18.0469 9.69844L26.575 18.3703C27.17 18.974 27.5022 19.7884 27.4992 20.6359V31.25H35.3125C35.5611 31.25 35.7996 31.1512 35.9754 30.9754C36.1512 30.7996 36.25 30.5611 36.25 30.3125V11.875H26.5625Z" fill="#172578"/>
</svg>
