<svg width="666" height="688" viewBox="0 0 666 688" fill="none" xmlns="http://www.w3.org/2000/svg">
<g clip-path="url(#clip0_322_1267)">
<path d="M110.791 182.368C115.209 212.745 94.1011 240.957 63.6722 245.377C33.2434 249.797 4.99341 228.773 0.575094 198.396C-3.84322 168.019 17.2497 139.822 47.6937 135.387C78.1377 130.968 106.388 152.006 110.791 182.368Z" fill="#F5F5F5"/>
<path d="M97.6872 184.275C101.046 207.417 84.977 228.91 61.7808 232.285C38.5847 235.66 17.0681 219.632 13.6939 196.474C10.3348 173.332 26.4041 151.824 49.6002 148.464C72.7964 145.104 94.3281 161.133 97.6872 184.275Z" fill="#EBEBEB"/>
<path d="M97.4902 182.958C97.233 183.004 96.7942 181.187 95.6442 178.069C94.4942 174.967 92.5423 170.532 88.9259 165.9C87.1253 163.6 84.9162 161.254 82.2531 159.074C79.5749 156.925 76.4881 154.912 72.9776 153.338C71.2224 152.551 69.3764 151.839 67.4548 151.295C65.518 150.735 63.5206 150.281 61.4477 150.023C59.3747 149.751 57.2563 149.599 55.1077 149.66C52.9591 149.705 50.7802 149.917 48.5861 150.296C46.4073 150.704 44.2889 151.249 42.2462 151.945C40.2035 152.642 38.2667 153.52 36.4055 154.473C34.5444 155.427 32.8194 156.562 31.2004 157.742C29.5662 158.923 28.0834 160.225 26.7064 161.572C23.9525 164.251 21.7434 167.217 19.973 170.153C18.2329 173.105 16.9619 176.071 16.054 178.856C14.2534 184.457 13.9659 189.285 13.9357 192.599C13.9357 195.914 14.1475 197.776 13.8903 197.821C13.7087 197.851 13.0732 196.065 12.6798 192.66C12.3015 189.285 12.241 184.199 13.8449 178.206C14.6468 175.224 15.8725 172.03 17.6277 168.822C19.398 165.628 21.6829 162.404 24.5729 159.468C26.0104 158 27.584 156.562 29.3241 155.275C31.0491 153.974 32.8951 152.748 34.8773 151.688C36.8595 150.629 38.9476 149.66 41.1567 148.903C43.3507 148.146 45.6507 147.541 47.996 147.102C50.3565 146.693 52.7018 146.482 55.032 146.436C57.3622 146.391 59.6471 146.572 61.8865 146.89C64.1108 147.193 66.2745 147.723 68.3475 148.343C70.4205 148.964 72.3875 149.766 74.2487 150.644C77.9861 152.415 81.2242 154.655 83.9932 157.031C86.747 159.438 88.9865 162.026 90.7719 164.553C94.3429 169.624 96.0225 174.407 96.8396 177.721C97.6566 181.036 97.6718 182.928 97.4902 182.958Z" fill="#E0E0E0"/>
<path d="M64.0815 214.743L65.2466 222.038L58.725 223.082L57.5902 215.984C51.0686 216.62 44.5622 215.59 40.5222 213.365L42.8372 204.844C46.4839 206.736 51.462 207.75 56.2284 207.447L54.4883 196.565C46.9681 195.96 38.5097 194.855 37.0117 185.531C35.9072 178.614 39.9774 171.879 50.0851 169.064L48.92 161.829L55.4415 160.785L56.5764 167.898C61.5243 167.505 66.4873 168.05 70.4366 169.76L68.4695 178.296C64.838 176.934 61.2822 176.374 57.9533 176.495L59.7237 187.575C67.2288 188.104 75.566 189.255 77.0338 198.442C78.1232 205.207 74.1134 211.867 64.0815 214.743ZM52.96 186.984L51.4772 177.721C48.1483 179.053 47.0891 181.172 47.422 183.321C47.7852 185.592 49.9338 186.53 52.96 186.984ZM66.684 200.894C66.3209 198.608 64.2328 197.67 61.2671 197.14L62.7045 206.131C65.8518 204.905 67.0169 202.982 66.684 200.894Z" fill="#E0E0E0"/>
<path d="M517.048 62.8729C521.527 93.6586 500.131 122.265 469.279 126.745C438.426 131.225 409.783 109.899 405.319 79.1133C400.84 48.3277 422.236 19.7216 453.088 15.2415C483.926 10.7614 512.569 32.0873 517.048 62.8729Z" fill="#F5F5F5"/>
<path d="M503.747 64.8101C507.152 88.2701 490.855 110.065 467.342 113.486C443.843 116.907 422.008 100.651 418.604 77.1909C415.199 53.7309 431.496 31.9357 455.01 28.5151C478.508 25.0945 500.343 41.35 503.747 64.8101Z" fill="#EBEBEB"/>
<path d="M503.552 63.4786C503.294 63.524 502.84 61.6774 501.675 58.5141C500.51 55.3811 498.528 50.8707 494.866 46.1787C493.035 43.8478 490.796 41.4715 488.103 39.2617C485.394 37.0822 482.262 35.0389 478.706 33.4497C476.936 32.6475 475.06 31.9362 473.108 31.3761C471.156 30.8161 469.113 30.3469 467.025 30.0745C464.922 29.802 462.773 29.6356 460.594 29.6961C458.415 29.7415 456.206 29.9534 453.982 30.3318C451.773 30.7405 449.624 31.3005 447.551 32.0118C445.478 32.7081 443.511 33.6011 441.635 34.5849C439.758 35.5535 438.003 36.6887 436.354 37.8995C434.705 39.0953 433.192 40.412 431.799 41.7742C429 44.4986 426.761 47.4955 424.975 50.4772C423.205 53.474 421.919 56.4708 421.011 59.3012C419.195 64.977 418.893 69.8809 418.877 73.2258C418.877 76.5859 419.089 78.4779 418.832 78.5233C418.635 78.5535 418 76.7524 417.591 73.3015C417.213 69.8658 417.152 64.7348 418.772 58.6503C419.589 55.6232 420.814 52.3842 422.6 49.1301C424.4 45.8911 426.715 42.6218 429.651 39.6401C431.119 38.1417 432.707 36.7038 434.463 35.3871C436.218 34.0703 438.079 32.814 440.106 31.7394C442.119 30.6648 444.237 29.681 446.462 28.9242C448.686 28.1523 451.016 27.5469 453.392 27.1079C455.782 26.6993 458.158 26.4722 460.519 26.4268C462.879 26.3814 465.209 26.563 467.464 26.8809C469.718 27.1836 471.912 27.7133 474 28.3642C476.104 28.9999 478.101 29.802 479.977 30.695C483.76 32.481 487.059 34.7514 489.858 37.173C492.642 39.6099 494.912 42.2283 496.727 44.7862C500.344 49.9323 502.054 54.7756 502.886 58.1357C503.718 61.5261 503.733 63.4483 503.552 63.4786Z" fill="#E0E0E0"/>
<path d="M469.687 95.7017L470.867 103.103L464.255 104.162L463.105 96.9579C456.507 97.6088 449.895 96.5644 445.81 94.3092L448.155 85.6669C451.847 87.5891 456.886 88.6031 461.728 88.3004L459.957 77.2666C452.331 76.6612 443.752 75.5261 442.239 66.0815C441.119 59.0738 445.25 52.2476 455.494 49.387L454.313 42.0463L460.926 40.9868L462.076 48.1913C467.099 47.7978 472.123 48.3427 476.133 50.0681L474.135 58.7256C470.458 57.3483 466.842 56.7732 463.483 56.9094L465.283 68.1399C472.894 68.6848 481.338 69.8351 482.836 79.1586C483.925 86.0301 479.855 92.7806 469.687 95.7017ZM458.399 67.5496L456.901 58.1656C453.526 59.5127 452.452 61.6619 452.8 63.8414C453.163 66.1572 455.342 67.0956 458.399 67.5496ZM472.319 81.6559C471.941 79.3402 469.838 78.4018 466.827 77.8569L468.279 86.9837C471.472 85.7274 472.652 83.7749 472.319 81.6559Z" fill="#E0E0E0"/>
<path d="M665.562 243.969C668.967 267.414 652.685 289.194 629.187 292.6C605.688 296.02 583.884 279.78 580.479 256.335C577.075 232.89 593.356 211.11 616.855 207.705C640.338 204.284 662.142 220.524 665.562 243.969Z" fill="#F5F5F5"/>
<path d="M655.44 245.438C658.043 263.297 645.62 279.901 627.72 282.504C609.82 285.108 593.206 272.727 590.603 254.867C588.016 237.007 600.423 220.403 618.323 217.8C636.224 215.197 652.838 227.578 655.44 245.438Z" fill="#EBEBEB"/>
<path d="M655.273 244.423C655.076 244.454 654.728 243.061 653.85 240.655C652.958 238.263 651.46 234.843 648.66 231.255C647.268 229.469 645.559 227.668 643.516 225.988C641.458 224.323 639.067 222.78 636.359 221.569C635.012 220.963 633.59 220.418 632.092 219.995C630.609 219.571 629.05 219.208 627.462 219.011C625.873 218.799 624.224 218.678 622.559 218.723C620.895 218.769 619.215 218.92 617.52 219.208C615.841 219.525 614.207 219.949 612.633 220.479C611.059 221.009 609.561 221.69 608.124 222.431C606.687 223.173 605.355 224.036 604.114 224.959C602.858 225.867 601.708 226.866 600.649 227.91C598.516 229.984 596.821 232.269 595.459 234.525C594.112 236.81 593.129 239.096 592.433 241.245C591.041 245.558 590.814 249.297 590.799 251.855C590.799 254.413 590.965 255.851 590.768 255.881C590.617 255.911 590.133 254.534 589.83 251.9C589.543 249.297 589.497 245.377 590.738 240.745C591.359 238.445 592.297 235.978 593.659 233.495C595.035 231.028 596.791 228.546 599.03 226.276C600.15 225.141 601.36 224.036 602.692 223.037C604.023 222.038 605.446 221.084 606.989 220.267C608.517 219.45 610.136 218.708 611.831 218.118C613.526 217.527 615.296 217.058 617.112 216.725C618.928 216.407 620.743 216.241 622.544 216.211C624.345 216.18 626.115 216.317 627.825 216.559C629.55 216.801 631.214 217.195 632.803 217.679C634.407 218.163 635.92 218.769 637.357 219.45C640.232 220.812 642.744 222.537 644.878 224.384C646.996 226.246 648.736 228.243 650.113 230.181C652.867 234.101 654.168 237.794 654.804 240.337C655.409 242.94 655.424 244.408 655.273 244.423Z" fill="#E0E0E0"/>
<path d="M629.489 268.958L630.397 274.589L625.373 275.391L624.495 269.912C619.472 270.411 614.433 269.609 611.331 267.899L613.117 261.315C615.931 262.768 619.774 263.555 623.451 263.328L622.105 254.928C616.309 254.458 609.773 253.596 608.623 246.406C607.775 241.079 610.908 235.872 618.715 233.692L617.823 228.107L622.846 227.305L623.724 232.784C627.552 232.482 631.38 232.905 634.421 234.222L632.893 240.821C630.094 239.777 627.34 239.338 624.783 239.429L626.16 247.98C631.955 248.389 638.386 249.267 639.521 256.365C640.338 261.602 637.236 266.733 629.489 268.958ZM620.909 247.526L619.759 240.382C617.187 241.412 616.37 243.046 616.627 244.696C616.915 246.467 618.579 247.178 620.909 247.526ZM631.501 258.272C631.214 256.517 629.61 255.79 627.325 255.382L628.43 262.329C630.866 261.36 631.758 259.877 631.501 258.272Z" fill="#E0E0E0"/>
<path d="M263.889 551.856C257.958 578.222 231.72 594.781 205.301 588.832C178.882 582.884 162.268 556.684 168.214 530.303C174.146 503.937 200.383 487.379 226.802 493.342C253.221 499.275 269.836 525.475 263.889 551.856Z" fill="#F5F5F5"/>
<path d="M252.51 549.283C247.986 569.383 227.998 581.991 207.858 577.45C187.719 572.91 175.069 552.946 179.593 532.846C184.117 512.746 204.106 500.138 224.245 504.679C244.385 509.219 257.035 529.198 252.51 549.283Z" fill="#EBEBEB"/>
<path d="M252.753 548.148C252.526 548.102 252.737 546.468 252.783 543.547C252.813 540.641 252.601 536.372 251.088 531.423C250.332 528.956 249.257 526.338 247.759 523.704C246.246 521.101 244.34 518.467 241.934 516.061C240.738 514.865 239.452 513.699 238.03 512.64C236.623 511.58 235.11 510.566 233.491 509.704C231.871 508.826 230.177 508.039 228.391 507.403C226.606 506.767 224.745 506.253 222.838 505.874C220.916 505.526 218.995 505.314 217.103 505.239C215.212 505.163 213.336 505.269 211.505 505.481C209.674 505.678 207.904 506.071 206.194 506.525C204.484 506.979 202.85 507.585 201.291 508.251C198.174 509.583 195.436 511.323 193.06 513.185C190.699 515.062 188.717 517.105 187.098 519.118C183.86 523.144 182.09 527.034 181.031 529.743C179.987 532.467 179.563 534.072 179.351 534.026C179.185 533.996 179.23 532.331 179.971 529.395C180.728 526.489 182.271 522.296 185.479 517.877C187.083 515.682 189.096 513.427 191.547 511.338C194.013 509.28 196.903 507.343 200.217 505.829C201.866 505.072 203.606 504.391 205.437 503.877C207.268 503.347 209.175 502.923 211.142 502.681C213.109 502.439 215.136 502.302 217.179 502.378C219.222 502.439 221.295 502.666 223.368 503.059C225.426 503.468 227.438 504.028 229.36 504.724C231.281 505.42 233.112 506.298 234.852 507.252C236.592 508.205 238.196 509.31 239.694 510.491C241.207 511.656 242.569 512.928 243.825 514.244C246.337 516.878 248.304 519.739 249.832 522.569C251.33 525.414 252.359 528.245 253.04 530.878C254.387 536.176 254.266 540.641 253.887 543.622C253.509 546.604 252.919 548.178 252.753 548.148Z" fill="#E0E0E0"/>
<path d="M215.273 563.753L213.941 570.125L208.252 568.929L209.553 562.723C204 561.195 198.961 558.304 196.344 555.201L200.929 548.92C203.334 551.629 207.102 554.02 211.112 555.277L213.109 545.772C207.117 542.911 200.505 539.324 202.215 531.181C203.486 525.157 208.948 520.889 218.148 521.751L219.479 515.44L225.169 516.636L223.867 522.841C228.059 524.082 231.978 526.095 234.686 528.744L230.374 535.146C227.817 532.891 225.063 531.302 222.294 530.364L220.266 540.035C226.273 542.835 232.765 546.407 231.085 554.429C229.829 560.332 224.427 564.555 215.273 563.753ZM214.879 537.417L216.574 529.334C213.412 529.38 211.884 530.787 211.475 532.664C211.051 534.647 212.534 536.085 214.879 537.417ZM221.779 553.173C222.203 551.175 220.781 549.752 218.511 548.39L216.862 556.245C219.827 556.215 221.386 555.004 221.779 553.173Z" fill="#E0E0E0"/>
<path d="M453.362 504.815L414.021 480.31C410.889 478.358 407.076 477.828 403.535 478.842L306.029 506.813C299.054 508.811 295.059 516.121 297.117 523.068L317.59 591.935C319.647 598.852 326.926 602.787 333.841 600.714L430.68 571.729C434.297 570.639 437.277 568.036 438.836 564.585L458.37 521.222C461.033 515.289 458.9 508.266 453.362 504.815ZM440.44 521.615C439.85 527.533 434.584 531.847 428.668 531.257C422.751 530.666 418.439 525.399 419.029 519.481C419.619 513.563 424.885 509.25 430.801 509.84C436.702 510.43 441.03 515.697 440.44 521.615Z" fill="#EBEBEB"/>
<path d="M336.321 536.796C333.946 528.426 337.532 521.645 344.764 519.587C351.997 517.529 358.534 521.343 360.94 529.788C363.346 538.234 359.805 544.924 352.557 546.982C345.324 549.041 338.712 545.181 336.321 536.796ZM353.858 531.817C352.345 526.489 349.561 524.521 346.429 525.414C343.372 526.277 341.995 529.516 343.493 534.768C344.991 540.02 347.866 542.048 350.923 541.17C354.04 540.277 355.371 537.129 353.858 531.817ZM374.528 511.732L382.971 509.325L363.194 568.672L354.751 571.078L374.528 511.732ZM376.767 550.615C374.376 542.245 377.977 535.464 385.15 533.421C392.382 531.362 399.01 535.222 401.401 543.607C403.776 551.977 400.19 558.758 392.957 560.816C385.77 562.859 379.158 558.985 376.767 550.615ZM394.228 545.635C392.73 540.383 389.931 538.34 386.799 539.233C383.742 540.096 382.35 543.259 383.863 548.587C385.377 553.914 388.236 555.867 391.293 554.989C394.41 554.111 395.726 550.887 394.228 545.635Z" fill="white"/>
<path d="M456.16 526.277C456.176 526.247 456.584 526.383 457.325 526.686C458.082 526.988 459.172 527.458 460.579 528.093C461.986 528.729 463.696 529.516 465.663 530.485C467.615 531.468 469.839 532.634 472.184 534.087C474.53 535.54 477.057 537.265 479.508 539.43C479.81 539.702 480.128 539.975 480.431 540.247C480.733 540.535 481.036 540.822 481.339 541.125C481.959 541.7 482.549 542.336 483.124 543.017C484.259 544.364 485.303 545.908 485.908 547.754C486.211 548.678 486.362 549.661 486.317 550.66C486.287 551.659 486.029 552.673 485.591 553.597C484.728 555.458 483.2 556.987 481.369 557.986C479.538 559 477.435 559.484 475.332 559.605C473.228 559.742 471.11 559.545 469.007 559.182C464.785 558.44 460.866 556.836 457.371 554.883C455.616 553.899 453.966 552.825 452.423 551.69C450.88 550.554 449.397 549.419 447.974 548.284C442.27 543.713 437.549 539.067 434.145 534.677C433.297 533.587 432.51 532.513 431.814 531.484C431.466 530.969 431.133 530.454 430.831 529.94C430.528 529.425 430.241 528.941 430.029 528.396C429.56 527.336 429.514 526.156 429.878 525.202C430.241 524.249 430.891 523.583 431.557 523.114C431.875 522.871 432.223 522.72 432.541 522.554C432.873 522.433 433.176 522.311 433.479 522.251C434.069 522.1 434.598 522.115 435.007 522.145C435.415 522.206 435.733 522.281 435.915 522.387C436.112 522.478 436.202 522.539 436.187 522.554C436.172 522.569 436.066 522.554 435.869 522.508C435.673 522.448 435.37 522.402 434.992 522.387C434.598 522.402 434.114 522.417 433.57 522.599C433.297 522.66 433.01 522.811 432.707 522.932C432.42 523.099 432.117 523.25 431.829 523.492C431.254 523.931 430.695 524.567 430.422 525.384C430.135 526.201 430.21 527.185 430.649 528.108C430.831 528.578 431.149 529.062 431.451 529.546C431.754 530.031 432.102 530.53 432.45 531.03C433.161 532.028 433.948 533.073 434.81 534.132C438.245 538.37 442.981 542.911 448.67 547.391C450.093 548.511 451.576 549.631 453.104 550.736C454.632 551.841 456.251 552.885 457.946 553.839C461.365 555.731 465.148 557.275 469.203 557.986C471.231 558.334 473.274 558.516 475.241 558.395C477.208 558.273 479.13 557.819 480.779 556.926C482.413 556.033 483.775 554.671 484.516 553.082C485.288 551.493 485.318 549.676 484.804 548.042C484.289 546.407 483.321 544.939 482.262 543.653C481.717 543.002 481.172 542.396 480.567 541.821C480.28 541.534 479.977 541.246 479.689 540.958C479.387 540.686 479.084 540.414 478.797 540.141C476.421 537.992 473.97 536.251 471.685 534.768C469.385 533.285 467.221 532.074 465.3 531.045C463.378 530.015 461.698 529.168 460.321 528.472C458.96 527.775 457.9 527.231 457.159 526.867C456.508 526.519 456.145 526.307 456.16 526.277Z" fill="#E0E0E0"/>
<path d="M281.531 52.9743L271.847 27.1683C271.075 25.1098 269.471 23.4752 267.429 22.673L211.322 0.544904C207.312 -1.04432 202.773 0.953563 201.23 4.97961L185.947 44.8617C184.419 48.8726 186.416 53.3527 190.426 54.8814L246.578 76.2982C248.681 77.1003 251.026 76.949 253.009 75.8895L277.914 62.5248C281.349 60.6934 282.893 56.6069 281.531 52.9743ZM269.35 56.2133C266.929 58.7864 262.889 58.9075 260.302 56.5009C257.729 54.0792 257.608 50.038 260.014 47.4499C262.435 44.8768 266.475 44.7557 269.063 47.1623C271.65 49.584 271.771 53.6403 269.35 56.2133Z" fill="#EBEBEB"/>
<path d="M214.757 25.6549C216.664 20.8418 220.81 18.9498 224.971 20.5996C229.132 22.2494 230.827 26.4116 228.905 31.2701C226.983 36.1286 222.883 37.9903 218.722 36.3405C214.576 34.6908 212.851 30.4679 214.757 25.6549ZM224.835 29.6506C226.045 26.5933 225.455 24.6559 223.655 23.9445C221.899 23.2483 220.084 24.2775 218.888 27.2895C217.693 30.3015 218.313 32.2993 220.068 32.9956C221.854 33.7069 223.624 32.708 224.835 29.6506ZM241.857 27.683L246.715 29.6052L215.892 50.4166L211.035 48.4943L241.857 27.683ZM228.829 46.8143C230.736 42.0012 234.882 40.1093 239.013 41.7439C243.174 43.3937 244.899 47.6165 242.992 52.4296C241.086 57.2427 236.94 59.1346 232.779 57.4848C228.648 55.8502 226.923 51.6274 228.829 46.8143ZM238.861 50.7949C240.057 47.783 239.482 45.8002 237.681 45.0889C235.926 44.3926 234.125 45.3764 232.915 48.4338C231.704 51.4912 232.34 53.4437 234.095 54.1399C235.881 54.8664 237.666 53.822 238.861 50.7949Z" fill="white"/>
<path d="M275.084 64.0991C275.1 64.084 275.251 64.2959 275.493 64.7197C275.735 65.1435 276.083 65.7489 276.522 66.5662C276.961 67.3684 277.475 68.3673 278.05 69.5328C278.625 70.6982 279.23 72.0604 279.82 73.5891C280.395 75.1329 280.97 76.8584 281.334 78.7654C281.379 79.0076 281.424 79.2498 281.47 79.492C281.5 79.7341 281.545 79.9763 281.576 80.2336C281.651 80.7331 281.712 81.2477 281.727 81.7623C281.772 82.8066 281.712 83.9115 281.334 85.0013C281.137 85.5462 280.865 86.0608 280.471 86.53C280.093 86.984 279.609 87.3776 279.064 87.65C277.99 88.21 276.719 88.3765 275.478 88.1949C274.252 87.9981 273.087 87.4684 272.043 86.7721C270.999 86.0759 270.076 85.2132 269.214 84.2899C267.489 82.4131 266.233 80.2336 265.279 78.0541C264.81 76.9643 264.417 75.8443 264.099 74.7545C263.781 73.6648 263.494 72.5902 263.237 71.5307C262.208 67.3079 261.663 63.4029 261.633 60.1034C261.633 59.286 261.648 58.499 261.693 57.7574C261.724 57.379 261.739 57.0308 261.784 56.6827C261.83 56.3346 261.86 56.0016 261.966 55.6686C262.132 55.0027 262.541 54.4275 263.055 54.1097C263.57 53.7918 264.129 53.7162 264.599 53.7313C264.841 53.7313 265.052 53.7918 265.264 53.8221C265.461 53.8827 265.658 53.9432 265.824 54.0189C266.157 54.1551 266.399 54.3519 266.581 54.5184C266.747 54.7 266.868 54.8513 266.914 54.9573C266.974 55.0632 266.989 55.1238 266.989 55.1389C266.974 55.1389 266.929 55.0935 266.853 55.0027C266.793 54.8967 266.656 54.7757 266.475 54.6243C266.293 54.4881 266.051 54.3216 265.718 54.2005C265.567 54.1248 265.385 54.0946 265.189 54.0491C264.992 54.0189 264.795 53.9886 264.568 53.9886C264.129 53.9886 263.645 54.0794 263.222 54.367C262.798 54.6546 262.465 55.1389 262.344 55.7292C262.268 56.0168 262.238 56.3649 262.208 56.6979C262.178 57.0308 262.162 57.3941 262.147 57.7574C262.117 58.4839 262.117 59.2558 262.132 60.0731C262.223 63.3121 262.813 67.1716 263.857 71.349C264.114 72.3934 264.417 73.4529 264.735 74.5426C265.052 75.6173 265.431 76.6919 265.9 77.7665C266.823 79.8855 268.048 81.9893 269.713 83.8056C270.545 84.6986 271.438 85.531 272.421 86.1818C273.39 86.8478 274.464 87.3321 275.569 87.4986C276.658 87.6651 277.793 87.5289 278.731 87.0446C279.669 86.5754 280.35 85.7278 280.683 84.7742C281.031 83.8207 281.107 82.7764 281.076 81.7774C281.061 81.2779 281.016 80.7785 280.94 80.2941C280.91 80.052 280.88 79.8098 280.849 79.5676C280.804 79.3255 280.759 79.0984 280.728 78.8563C280.395 76.9795 279.866 75.2843 279.321 73.7405C278.776 72.2118 278.186 70.8496 277.657 69.669C277.127 68.4884 276.643 67.4744 276.25 66.657C275.856 65.8397 275.554 65.1889 275.342 64.75C275.145 64.3564 275.054 64.1143 275.084 64.0991Z" fill="#E0E0E0"/>
<path d="M96.0977 424.49L96.2641 101.362C96.2641 91.3729 104.374 83.2754 114.361 83.2754L593.687 83.5327C603.674 83.5327 611.769 91.6453 611.769 101.635L611.603 424.763C611.603 434.752 603.492 442.85 593.506 442.85L114.179 442.593C104.178 442.593 96.0977 434.48 96.0977 424.49Z" fill="#455A64"/>
<path d="M575.977 430.84L576.154 94.1812L145.641 93.9541L145.464 430.613L575.977 430.84Z" fill="white"/>
<path d="M122.078 276.722C114.467 276.722 108.293 270.547 108.309 262.934C108.309 255.321 114.482 249.146 122.093 249.161C129.704 249.161 135.878 255.336 135.863 262.949C135.863 270.562 129.689 276.722 122.078 276.722Z" fill="#263238"/>
<path d="M591.115 315.454L591.176 210.913C591.176 209.899 591.993 209.067 593.022 209.082H595.034C596.048 209.082 596.88 209.899 596.865 210.928L596.805 315.469C596.805 316.483 595.988 317.316 594.959 317.301H592.946C591.947 317.301 591.115 316.468 591.115 315.454Z" fill="#263238"/>
<path d="M563.636 365.371H158.68V123.067C158.68 112.532 167.214 103.996 177.745 103.996H544.571C555.102 103.996 563.636 112.532 563.636 123.067V365.371Z" fill="#E0E0E0"/>
<path d="M532.663 384.518C532.663 389.3 454.662 393.19 358.427 393.19C262.208 393.19 184.191 389.316 184.191 384.518C184.191 379.735 262.193 375.845 358.427 375.845C454.662 375.845 532.663 379.72 532.663 384.518Z" fill="#EBEBEB"/>
<path d="M530.923 131.421C530.877 131.361 530.802 131.331 530.726 131.331L515.928 131.255H511.585L510.314 131.27L510.193 130.422L509.966 128.758C509.951 128.636 509.845 128.546 509.724 128.546H509.663L505.623 128.561C505.306 128.576 505.094 128.576 505.094 128.833C505.094 129.091 505.306 129.091 505.623 129.106L509.391 129.181L511.479 145.407C511.494 145.528 511.6 145.619 511.721 145.619L523.811 145.679L528.35 145.664C528.729 145.649 528.925 145.649 528.925 145.391C528.925 145.134 528.729 145.134 528.35 145.119L512.145 144.907L511.767 142.031L528.804 142.258C528.925 142.258 529.031 142.168 529.046 142.062L530.302 135.281L530.968 131.633C530.998 131.558 530.983 131.482 530.923 131.421ZM510.39 131.785L530.166 132.042L528.411 141.532L516.276 141.471H512.659L511.691 141.487L510.39 131.785Z" fill="#263238"/>
<path d="M516.246 149.402C516.216 149.206 516.064 148.676 515.565 148.267C515.172 147.934 514.445 147.647 513.658 147.934C512.856 148.191 512.281 148.994 512.281 149.841C512.266 150.81 512.947 151.536 513.628 151.763C513.87 151.854 514.097 151.885 514.309 151.885C514.824 151.885 515.277 151.688 515.55 151.461C516.064 151.052 516.216 150.537 516.261 150.341C516.291 150.22 516.306 150.023 516.291 149.872C516.291 149.72 516.276 149.523 516.246 149.402ZM513.855 151.097C513.416 150.946 512.993 150.462 512.993 149.841C512.993 149.221 513.431 148.751 513.87 148.6C514.022 148.54 514.188 148.524 514.324 148.524C514.657 148.524 514.96 148.646 515.141 148.797C515.474 149.054 515.61 149.372 515.656 149.539C515.686 149.66 515.701 149.766 515.716 149.826C515.716 149.841 515.716 149.856 515.731 149.872C515.731 149.887 515.731 149.902 515.716 149.917C515.701 149.977 515.686 150.083 515.656 150.204C515.61 150.371 515.459 150.704 515.126 150.946C514.869 151.128 514.37 151.294 513.855 151.097Z" fill="#263238"/>
<path d="M527.096 149.478C527.065 149.281 526.914 148.751 526.415 148.343C526.021 148.01 525.295 147.737 524.508 148.01C523.706 148.267 523.131 149.069 523.131 149.917C523.116 150.886 523.797 151.612 524.478 151.854C524.72 151.945 524.947 151.975 525.159 151.975C525.673 151.975 526.127 151.779 526.399 151.552C526.914 151.143 527.065 150.628 527.111 150.431C527.141 150.31 527.156 150.114 527.141 149.962C527.141 149.796 527.111 149.584 527.096 149.478ZM524.705 151.188C524.281 151.037 523.842 150.553 523.842 149.932C523.842 149.327 524.296 148.842 524.72 148.691C524.871 148.63 525.038 148.615 525.174 148.615C525.507 148.615 525.794 148.736 525.991 148.888C526.324 149.145 526.46 149.463 526.505 149.629C526.536 149.75 526.551 149.856 526.566 149.917C526.566 149.932 526.566 149.947 526.581 149.962C526.581 149.977 526.581 149.993 526.566 150.008C526.551 150.068 526.536 150.174 526.505 150.295C526.46 150.462 526.309 150.795 525.976 151.037C525.719 151.219 525.219 151.385 524.705 151.188Z" fill="#263238"/>
<path d="M189.744 156.35L190.274 155.32C191.166 156.198 192.77 156.849 194.435 156.849C196.795 156.849 197.824 155.865 197.824 154.609C197.824 151.143 190.062 153.277 190.062 148.615C190.062 146.754 191.499 145.149 194.707 145.149C196.129 145.149 197.612 145.558 198.611 146.269L198.157 147.329C197.083 146.633 195.812 146.285 194.692 146.285C192.392 146.285 191.363 147.314 191.363 148.57C191.363 152.036 199.125 149.932 199.125 154.533C199.125 156.395 197.643 157.969 194.42 157.969C192.543 157.984 190.682 157.318 189.744 156.35Z" fill="#263238"/>
<path d="M201.924 152.49V145.271H203.255V152.445C203.255 155.442 204.663 156.804 207.114 156.804C209.58 156.804 210.987 155.442 210.987 152.445V145.271H212.289V152.49C212.289 156.108 210.337 157.984 207.114 157.984C203.891 157.984 201.924 156.123 201.924 152.49Z" fill="#263238"/>
<path d="M226.164 149.599C226.164 152.278 224.212 153.898 221.02 153.898H217.63V157.878H216.299V145.271H221.02C224.228 145.271 226.164 146.89 226.164 149.599ZM224.833 149.599C224.833 147.586 223.501 146.436 220.974 146.436H217.63V152.747H220.974C223.501 152.732 224.833 151.582 224.833 149.599Z" fill="#263238"/>
<path d="M237.967 156.728V157.878H229.055V145.271H237.695V146.421H230.386V150.901H236.908V152.036H230.386V156.713H237.967V156.728Z" fill="#263238"/>
<path d="M249.709 157.878L246.834 153.822C246.517 153.852 246.184 153.883 245.821 153.883H242.431V157.878H241.1V145.271H245.821C249.028 145.271 250.965 146.89 250.965 149.599C250.965 151.582 249.921 152.974 248.09 153.565L251.177 157.894H249.709V157.878ZM249.649 149.599C249.649 147.586 248.317 146.436 245.79 146.436H242.446V152.763H245.79C248.317 152.747 249.649 151.582 249.649 149.599Z" fill="#263238"/>
<path d="M269.606 149.841C269.606 152.657 267.503 154.397 264.128 154.397H261.586V157.878H258.666V145.271H264.128C267.503 145.271 269.606 147.026 269.606 149.841ZM266.655 149.841C266.655 148.449 265.747 147.647 263.977 147.647H261.601V152.021H263.977C265.747 152.021 266.655 151.219 266.655 149.841Z" fill="#263238"/>
<path d="M279.714 157.878L277.278 154.367H277.126H274.584V157.878H271.664V145.271H277.126C280.501 145.271 282.604 147.011 282.604 149.841C282.604 151.733 281.651 153.126 280.017 153.822L282.846 157.878H279.714ZM276.975 147.647H274.6V152.036H276.975C278.761 152.036 279.653 151.204 279.653 149.841C279.653 148.464 278.761 147.647 276.975 147.647Z" fill="#263238"/>
<path d="M284.92 145.271H287.84V157.878H284.92V145.271Z" fill="#263238"/>
<path d="M290.033 151.582C290.033 147.783 292.954 145.059 296.873 145.059C299.051 145.059 300.867 145.846 302.063 147.299L300.186 149.024C299.339 148.055 298.28 147.541 297.024 147.541C294.663 147.541 292.984 149.191 292.984 151.582C292.984 153.958 294.663 155.623 297.024 155.623C298.28 155.623 299.354 155.124 300.186 154.125L302.063 155.85C300.867 157.303 299.051 158.105 296.857 158.105C292.954 158.09 290.033 155.381 290.033 151.582Z" fill="#263238"/>
<path d="M313.789 155.532V157.878H304.029V145.271H313.562V147.617H306.935V150.356H312.79V152.626H306.935V155.548H313.789V155.532Z" fill="#263238"/>
<path d="M200.383 199.667V204.329H196.978V199.713C192.908 199.471 188.959 198.139 186.795 196.262L188.671 192.069C190.714 193.734 193.831 194.945 196.978 195.233V186.923C192.363 185.803 187.415 184.305 187.415 178.523C187.415 174.285 190.487 170.577 196.978 169.956V165.264H200.383V169.881C203.454 170.047 206.571 170.955 208.826 172.423L207.116 176.616C204.907 175.33 202.592 174.618 200.383 174.376V182.776C204.998 183.896 210.021 185.349 210.021 191.131C210.036 195.339 206.919 199.001 200.383 199.667ZM196.978 181.868V174.467C194.028 174.921 192.787 176.419 192.787 178.251C192.787 180.249 194.572 181.157 196.978 181.868ZM204.71 191.464C204.71 189.421 202.879 188.467 200.383 187.771V195.127C203.424 194.673 204.71 193.265 204.71 191.464Z" fill="#263238"/>
<path d="M234.383 194.748V199.319H212.942V195.702L224.503 184.729C227.332 182.02 227.832 180.324 227.832 178.705C227.832 176.041 226.001 174.512 222.43 174.512C219.6 174.512 217.24 175.466 215.621 177.539L211.838 174.633C214.077 171.591 218.117 169.805 222.899 169.805C229.208 169.805 233.294 173.014 233.294 178.16C233.294 180.99 232.507 183.563 228.467 187.347L220.69 194.748H234.383Z" fill="#263238"/>
<path d="M260.605 190.314C260.605 196.096 255.915 199.743 249.968 199.743C242.024 199.743 237.379 194.627 237.379 185.274C237.379 175.299 243.204 169.805 251.632 169.805C254.538 169.805 257.322 170.426 259.274 171.682L257.276 175.753C255.703 174.709 253.781 174.346 251.754 174.346C246.261 174.346 242.811 177.751 242.811 184.366V184.411C244.551 182.368 247.335 181.384 250.588 181.384C256.323 181.369 260.605 184.865 260.605 190.314ZM255.37 190.556C255.37 187.529 253.085 185.607 249.544 185.607C246.049 185.607 243.643 187.726 243.643 190.601C243.643 193.341 245.807 195.505 249.665 195.505C253.04 195.505 255.37 193.598 255.37 190.556Z" fill="#263238"/>
<path d="M263.676 196.171C263.676 194.098 265.219 192.72 267.08 192.72C268.957 192.72 270.485 194.098 270.485 196.171C270.485 198.169 268.941 199.622 267.08 199.622C265.219 199.622 263.676 198.169 263.676 196.171Z" fill="#263238"/>
<path d="M273.496 184.774C273.496 175.209 278.731 169.805 285.631 169.805C292.577 169.805 297.812 175.209 297.812 184.774C297.812 194.34 292.577 199.743 285.631 199.743C278.731 199.743 273.496 194.34 273.496 184.774ZM292.365 184.774C292.365 177.751 289.626 174.512 285.631 174.512C281.682 174.512 278.943 177.751 278.943 184.774C278.943 191.797 281.682 195.036 285.631 195.036C289.611 195.051 292.365 191.797 292.365 184.774Z" fill="#263238"/>
<path d="M301.459 184.774C301.459 175.209 306.694 169.805 313.594 169.805C320.539 169.805 325.775 175.209 325.775 184.774C325.775 194.34 320.539 199.743 313.594 199.743C306.694 199.743 301.459 194.34 301.459 184.774ZM320.328 184.774C320.328 177.751 317.589 174.512 313.594 174.512C309.645 174.512 306.906 177.751 306.906 184.774C306.906 191.797 309.645 195.036 313.594 195.036C317.589 195.051 320.328 191.797 320.328 184.774Z" fill="#263238"/>
<path d="M329.422 184.774C329.422 175.209 334.657 169.805 341.557 169.805C348.502 169.805 353.738 175.209 353.738 184.774C353.738 194.34 348.502 199.743 341.557 199.743C334.672 199.743 329.422 194.34 329.422 184.774ZM348.29 184.774C348.29 177.751 345.552 174.512 341.557 174.512C337.608 174.512 334.869 177.751 334.869 184.774C334.869 191.797 337.608 195.036 341.557 195.036C345.552 195.051 348.29 191.797 348.29 184.774Z" fill="#263238"/>
<path d="M238.588 216.226H186.748V242.002H238.588V216.226Z" fill="#FF725E"/>
<path d="M204.906 224.883V234.464H203.438L198.157 227.971V234.464H196.387V224.883H197.854L203.135 231.376V224.883H204.906Z" fill="white"/>
<path d="M214.65 232.966V234.464H207.463V224.883H214.454V226.382H209.233V228.879H213.863V230.347H209.233V232.996H214.65V232.966Z" fill="white"/>
<path d="M230.507 224.883L227.329 234.464H225.438L223.062 227.366L220.656 234.464H218.75L215.572 224.883H217.418L219.794 232.163L222.275 224.883H223.925L226.346 232.209L228.797 224.883H230.507Z" fill="white"/>
<path d="M483.153 350.902C483.153 351.113 419.285 351.295 340.527 351.295C261.738 351.295 197.885 351.113 197.885 350.902C197.885 350.69 261.738 350.508 340.527 350.508C419.3 350.508 483.153 350.69 483.153 350.902Z" fill="#E0E0E0"/>
<path d="M515.897 252.536C515.897 252.536 514.989 252.808 513.31 252.793C512.477 252.778 511.448 252.672 510.283 252.415C509.118 252.158 507.817 251.764 506.425 251.219C505.018 250.689 503.535 250.023 501.916 249.327C501.099 248.994 500.266 248.661 499.404 248.313C498.541 247.965 497.618 247.662 496.695 247.329C492.973 246.043 488.782 244.892 484.333 243.954C475.421 242.077 467.174 241.305 461.228 241.078C459.745 241.003 458.383 241.003 457.203 240.957C456.023 240.957 455.009 240.957 454.162 240.957C453.345 240.972 452.709 240.988 452.24 241.003C452.028 241.003 451.877 241.003 451.741 241.003C451.635 241.003 451.574 241.003 451.574 240.988C451.574 240.988 451.635 240.972 451.741 240.972C451.877 240.957 452.028 240.957 452.24 240.942C452.709 240.912 453.345 240.882 454.162 240.836C455.009 240.821 456.023 240.806 457.203 240.776C458.383 240.791 459.745 240.776 461.243 240.851C467.22 241.033 475.482 241.759 484.409 243.636C488.873 244.575 493.064 245.74 496.801 247.042C497.724 247.39 498.647 247.693 499.51 248.041C500.372 248.404 501.22 248.737 502.037 249.07C503.641 249.766 505.139 250.447 506.516 250.992C507.908 251.537 509.179 251.961 510.329 252.218C511.479 252.491 512.492 252.596 513.325 252.642C514.157 252.657 514.808 252.627 515.231 252.566C515.428 252.536 515.594 252.521 515.731 252.506C515.836 252.536 515.897 252.521 515.897 252.536Z" fill="#263238"/>
<path d="M369.556 422.229C375.701 416.082 375.701 406.115 369.556 399.968C363.41 393.821 353.446 393.821 347.301 399.968C341.156 406.115 341.156 416.082 347.301 422.229C353.446 428.376 363.41 428.376 369.556 422.229Z" fill="#EBEBEB"/>
<path d="M358.837 417.952C358.61 417.952 358.398 417.861 358.262 417.679L350.394 408.417C350.121 408.099 350.167 407.614 350.484 407.342C350.802 407.07 351.286 407.115 351.559 407.433L358.822 415.984L365.313 407.478C365.57 407.145 366.039 407.085 366.372 407.342C366.705 407.599 366.766 408.068 366.508 408.401L359.442 417.664C359.306 417.846 359.094 417.952 358.867 417.967C358.852 417.952 358.852 417.952 358.837 417.952Z" fill="#263238"/>
<path d="M107.266 623.629L106.297 650.176C106.297 650.176 132.943 660.09 133.246 665.009L81.7089 664.964L81.5273 623.538L107.266 623.629Z" fill="#455A64"/>
<path d="M90.3642 647.936C89.3655 648.209 88.6695 649.329 88.9116 650.343C89.1386 651.357 90.2734 652.068 91.2721 651.811C92.2707 651.554 93.1484 650.237 92.8003 649.253C92.4523 648.284 91.0754 647.513 90.1675 647.997" fill="#E0E0E0"/>
<path d="M81.709 664.964L81.8603 660.786L131.218 662.391C131.218 662.391 133.518 663.39 133.246 665.009L81.709 664.964Z" fill="#263238"/>
<path d="M107.13 649.919C107.115 650.176 105.859 650.282 104.618 651.084C103.362 651.856 102.712 652.946 102.485 652.855C102.258 652.81 102.636 651.296 104.149 650.343C105.662 649.389 107.175 649.692 107.13 649.919Z" fill="white"/>
<path d="M112.532 652.159C112.593 652.401 111.503 652.825 110.641 653.9C109.748 654.944 109.536 656.094 109.294 656.079C109.052 656.125 108.885 654.641 109.975 653.34C111.049 652.023 112.532 651.917 112.532 652.159Z" fill="white"/>
<path d="M115.588 658.637C115.361 658.698 115.013 657.426 115.663 656.049C116.299 654.672 117.494 654.127 117.6 654.339C117.736 654.551 116.98 655.277 116.465 656.427C115.921 657.547 115.845 658.607 115.588 658.637Z" fill="white"/>
<path d="M106.676 643.85C106.57 644.077 105.42 643.729 103.997 643.819C102.575 643.88 101.47 644.364 101.334 644.152C101.183 643.971 102.272 643.032 103.952 642.957C105.616 642.836 106.797 643.638 106.676 643.85Z" fill="white"/>
<path d="M48.1315 626.065L46.0737 658.138L51.763 683.974C52.1715 685.836 50.9157 687.652 49.0394 687.939C47.9802 688.091 46.921 687.743 46.1796 686.971C41.4738 682.067 24.2545 663.95 24.5268 661.619C24.8597 658.909 24.4512 627.639 24.4512 627.639L48.1315 626.065Z" fill="#455A64"/>
<path d="M49.0393 687.939L24.6327 659.454L24.5721 660.817C24.5268 661.997 24.8899 663.147 25.6162 664.071C27.553 666.553 33.0608 673.288 46.0887 686.971C46.8453 687.773 47.965 688.136 49.0393 687.939Z" fill="#263238"/>
<g opacity="0.6">
<g opacity="0.6">
<g opacity="0.6">
<g opacity="0.6">
<g opacity="0.6">
<g opacity="0.6">
<g opacity="0.6">
<g opacity="0.6">
<g opacity="0.6">
<path opacity="0.6" d="M31.6386 649.359C32.4254 649.949 32.6372 651.175 32.0774 651.977C31.5175 652.78 30.2768 653.007 29.4748 652.431C28.688 651.856 28.3854 650.388 29.0209 649.646C29.6715 648.905 31.1392 648.723 31.7747 649.465" fill="white"/>
</g>
</g>
</g>
</g>
</g>
</g>
</g>
</g>
</g>
<path d="M42.2762 673.606C42.4578 673.697 43.2446 672.047 45.1965 671.23C47.1182 670.352 48.8734 670.866 48.9188 670.67C48.9491 670.594 48.5556 670.322 47.8142 670.185C47.0728 670.049 45.9833 670.11 44.909 670.579C43.8498 671.048 43.063 671.82 42.6696 672.456C42.2762 673.107 42.2005 673.576 42.2762 673.606Z" fill="white"/>
<path d="M44.3932 678.01C44.5445 678.162 45.6188 677.148 47.2983 676.739C48.9628 676.3 50.3851 676.663 50.4456 676.467C50.5516 676.3 49.0233 675.559 47.1168 676.058C45.2102 676.527 44.2267 677.905 44.3932 678.01Z" fill="white"/>
<path d="M38.2505 667.915C38.4018 668.067 40.036 666.523 42.5932 665.66C45.1352 664.752 47.3898 664.964 47.4049 664.752C47.4654 664.585 45.0898 664.041 42.3662 664.994C39.6274 665.932 38.0992 667.824 38.2505 667.915Z" fill="white"/>
<path d="M38.0541 658.122C38.1297 658.319 39.9303 657.653 42.2454 657.668C44.5605 657.653 46.3611 658.304 46.4368 658.107C46.5275 657.956 44.7269 656.942 42.2454 656.957C39.7639 656.942 37.9633 657.971 38.0541 658.122Z" fill="white"/>
<path d="M38.4176 648.693C38.5084 648.89 40.3393 647.891 42.7754 648.103C45.2115 648.254 46.8759 649.525 46.9819 649.344C47.0424 649.283 46.7095 648.859 45.9832 648.405C45.272 647.951 44.1372 647.497 42.8208 647.391C41.5044 647.3 40.3241 647.573 39.5524 647.906C38.7656 648.254 38.3722 648.617 38.4176 648.693Z" fill="white"/>
<path d="M42.7894 646.301C42.8348 646.301 42.9256 645.878 42.8802 645.091C42.8348 644.304 42.6683 643.153 42.0479 641.867C41.7302 641.261 41.3973 640.474 40.5197 640.02C40.0809 639.793 39.4151 639.839 39.0217 640.247C38.6283 640.641 38.4921 641.171 38.4618 641.67C38.4165 643.713 40.0809 645.757 42.3657 646.135C44.6505 646.483 46.7991 645.257 47.7827 643.532C47.9945 643.078 48.1609 642.533 47.934 641.973C47.707 641.413 47.0715 641.171 46.6024 641.231C45.6492 641.337 45.0137 641.867 44.4387 642.245C43.2887 643.093 42.5775 644.001 42.1387 644.652C41.7151 645.303 41.5637 645.726 41.594 645.741C41.6999 645.832 42.4716 644.198 44.711 642.654C45.2709 642.306 45.9215 641.852 46.6176 641.821C46.9505 641.806 47.2379 641.942 47.3439 642.215C47.4498 642.472 47.3741 642.881 47.1774 643.229C46.3452 644.637 44.3933 645.757 42.4565 645.439C40.5348 645.136 39.0671 643.335 39.0974 641.685C39.1125 641.292 39.2335 640.898 39.4454 640.671C39.6572 640.444 39.975 640.399 40.2776 640.535C40.898 640.807 41.2762 641.504 41.6091 642.079C42.865 644.5 42.6532 646.317 42.7894 646.301Z" fill="white"/>
<path d="M129.841 399.23C129.841 399.23 134.093 414.274 133.11 432.724C132.731 439.868 109.792 646.302 109.792 646.302L80.6044 643.683L85.6431 450.69L84.4174 451.78C84.4174 451.78 67.0317 532.982 65.8817 545.817C64.8528 557.35 50.9623 650.04 50.9623 650.04L22.6367 648.693L29.0524 531.529L37.6469 425.157L41.0817 394.174L129.841 399.23Z" fill="#263238"/>
<path d="M80.0296 434.026C80.0145 434.072 80.4987 434.344 81.4066 434.753C82.3145 435.161 83.6611 435.767 85.4617 436.069C86.3696 436.206 87.3834 436.236 88.4577 436.024C89.5169 435.812 90.6517 435.328 91.5596 434.45C92.4675 433.572 93.0273 432.346 93.3754 431.09C93.7234 429.819 93.9201 428.502 94.1622 427.155C95.0701 421.782 95.6602 416.878 95.9931 413.321C96.1595 411.55 96.2654 410.097 96.3108 409.098C96.3562 408.099 96.3562 407.554 96.3108 407.539C96.2654 407.539 96.1746 408.084 96.0385 409.068C95.8871 410.203 95.7207 411.595 95.5089 413.26C95.0549 416.802 94.3892 421.676 93.4813 427.034C93.0122 429.682 92.7247 432.376 91.1057 433.996C89.5018 435.585 87.2018 435.797 85.5374 435.585C83.7973 435.373 82.4506 434.828 81.5125 434.511C80.5744 434.178 80.0448 433.981 80.0296 434.026Z" fill="#455A64"/>
<path d="M89.2288 408.659C89.2439 408.629 89.017 408.492 88.563 408.477C88.1091 408.447 87.4282 408.614 86.7624 409.098C86.1269 409.597 85.446 410.46 85.446 411.641C85.4158 412.836 86.369 413.972 87.5946 414.38C88.8051 414.819 90.2577 414.516 90.984 413.563C91.7103 412.64 91.7255 411.535 91.5439 410.763C91.332 409.961 90.8932 409.416 90.515 409.143C90.1518 408.871 89.8795 408.841 89.8795 408.871C89.7887 408.962 90.8025 409.401 91.0597 410.869C91.1807 411.565 91.0899 412.488 90.4998 413.169C89.94 413.866 88.8203 414.093 87.8216 413.744C86.823 413.396 86.0967 412.534 86.0815 411.641C86.0513 410.748 86.5506 409.961 87.065 409.491C88.1696 408.492 89.2439 408.78 89.2288 408.659Z" fill="#455A64"/>
<path d="M38.0547 423.219C38.0547 423.265 38.4481 423.31 39.1593 423.371C39.8704 423.431 40.9145 423.431 42.2006 423.34C44.7729 423.174 48.3136 422.462 51.93 420.843C55.5312 419.223 58.4213 417.029 60.2673 415.228C61.1903 414.335 61.8863 413.548 62.3251 412.973C62.7639 412.397 62.9909 412.08 62.9455 412.049C62.8547 411.974 61.8409 413.184 59.9344 414.864C58.043 416.545 55.1832 418.618 51.6576 420.207C48.1321 421.781 44.6822 422.553 42.1552 422.841C39.6435 423.144 38.0698 423.098 38.0547 423.219Z" fill="#455A64"/>
<path d="M116.723 408.614C116.648 408.644 117.238 409.961 118.478 411.883C119.719 413.82 121.701 416.348 124.274 418.739C126.861 421.131 129.524 422.917 131.537 424.006C133.564 425.111 134.896 425.596 134.926 425.52C134.971 425.414 133.716 424.778 131.779 423.583C129.842 422.387 127.27 420.586 124.728 418.225C122.201 415.863 120.203 413.427 118.857 411.595C117.555 409.779 116.829 408.568 116.723 408.614Z" fill="#455A64"/>
<path d="M110.625 191.162C108.597 177.994 96.795 168.595 83.5098 169.563L82.1934 169.654C68.0306 171.516 61.6907 184.608 63.9603 198.714L68.8931 248.828L69.1352 259.181L102.878 262.238L102.152 240.367C102.152 240.367 115.679 237.249 114.847 223.552C114.438 216.952 112.501 203.406 110.625 191.162Z" fill="#FFBE9D"/>
<path d="M102.256 240.367C102.256 240.367 93.5556 241.533 83.9473 236.432C83.9473 236.432 88.88 245.967 102.438 243.742L102.256 240.367Z" fill="#EB996E"/>
<path d="M108.643 203.86C108.748 204.889 107.977 205.828 106.902 205.964C105.828 206.1 104.875 205.374 104.754 204.345C104.648 203.315 105.42 202.377 106.494 202.241C107.568 202.12 108.522 202.846 108.643 203.86Z" fill="#263238"/>
<path d="M108.158 198.063C107.931 198.336 106.373 197.352 104.269 197.503C102.166 197.624 100.698 198.82 100.456 198.578C100.335 198.472 100.547 197.988 101.183 197.458C101.803 196.928 102.908 196.368 104.209 196.277C105.525 196.187 106.66 196.595 107.326 197.034C108.022 197.503 108.279 197.942 108.158 198.063Z" fill="#263238"/>
<path d="M88.8047 206.206C88.9106 207.235 88.1389 208.174 87.0646 208.31C85.9903 208.446 85.037 207.72 84.916 206.691C84.81 205.661 85.5817 204.723 86.6561 204.587C87.7455 204.451 88.6988 205.177 88.8047 206.206Z" fill="#263238"/>
<path d="M87.5331 199.97C87.3061 200.243 85.7476 199.259 83.6444 199.41C81.5411 199.531 80.0734 200.727 79.8313 200.485C79.7103 200.379 79.9221 199.895 80.5576 199.365C81.178 198.835 82.2826 198.275 83.5839 198.184C84.9003 198.094 86.0351 198.502 86.7009 198.941C87.3818 199.395 87.639 199.849 87.5331 199.97Z" fill="#263238"/>
<path d="M96.2946 215C96.2795 214.879 97.5656 214.561 99.6689 214.137C100.198 214.046 100.698 213.895 100.758 213.532C100.849 213.138 100.592 212.578 100.289 211.973C99.684 210.717 99.0636 209.385 98.3978 208.007C95.765 202.347 93.8282 197.685 94.0552 197.579C94.2822 197.473 96.5972 201.983 99.2301 207.644C99.8656 209.037 100.471 210.369 101.046 211.64C101.288 212.23 101.696 212.896 101.485 213.729C101.364 214.137 101 214.455 100.652 214.576C100.319 214.712 100.017 214.728 99.7445 214.773C97.6261 215.015 96.3097 215.121 96.2946 215Z" fill="#263238"/>
<path d="M90.2126 216.907C90.5455 216.862 90.7271 219.147 92.8 220.615C94.873 222.099 97.2789 221.66 97.3243 221.978C97.3697 222.114 96.8098 222.462 95.796 222.568C94.7974 222.674 93.2994 222.462 92.0284 221.554C90.7573 220.646 90.1521 219.359 90.0159 218.436C89.8495 217.482 90.0613 216.907 90.2126 216.907Z" fill="#263238"/>
<path d="M87.4723 191.691C87.3059 192.281 85.1875 192.16 82.7514 192.63C80.3001 193.053 78.3633 193.931 78.0002 193.432C77.8337 193.19 78.1515 192.63 78.9081 192.024C79.6646 191.419 80.9054 190.798 82.3731 190.526C83.8408 190.253 85.2178 190.39 86.1408 190.692C87.0486 190.995 87.548 191.404 87.4723 191.691Z" fill="#263238"/>
<path d="M106.947 192.039C106.614 192.539 105.131 192.161 103.391 192.251C101.651 192.297 100.199 192.811 99.8204 192.327C99.6539 192.1 99.8506 191.601 100.456 191.101C101.061 190.602 102.09 190.163 103.285 190.102C104.481 190.057 105.555 190.405 106.191 190.859C106.856 191.313 107.098 191.797 106.947 192.039Z" fill="#263238"/>
<path d="M67.1067 211.882C66.8646 209.778 64.9278 208.235 62.8397 208.598C60.3128 209.022 57.574 210.686 58.1187 215.939C59.1023 225.277 68.2567 222.356 68.2567 222.099C68.2567 221.917 67.5606 215.787 67.1067 211.882Z" fill="#FFBE9D"/>
<path d="M65.8655 218.799C65.8201 218.769 65.7141 218.935 65.4569 219.087C65.1997 219.238 64.7458 219.374 64.2464 219.238C63.2175 218.981 62.234 217.497 62.007 215.817C61.9011 214.97 61.9919 214.137 62.2188 213.441C62.4307 212.73 62.8241 212.2 63.3083 212.064C63.7925 211.897 64.1708 212.155 64.3069 212.412C64.4583 212.654 64.4129 212.851 64.4734 212.866C64.5037 212.881 64.655 212.684 64.549 212.306C64.4885 212.124 64.3523 211.912 64.1254 211.761C63.8833 211.61 63.5504 211.549 63.2024 211.625C62.4912 211.746 61.9162 212.488 61.659 213.244C61.3715 214.016 61.2353 214.955 61.3715 215.908C61.6287 217.785 62.7787 219.435 64.1708 219.692C64.8517 219.798 65.3661 219.541 65.6385 219.283C65.8655 219.026 65.8957 218.814 65.8655 218.799Z" fill="#EB996E"/>
<path d="M147.922 292.01C152.264 304.663 153.717 304.875 157.651 341.412C158.423 348.51 156.501 359.302 150.222 362.662C143.927 366.037 132.745 362.329 129.008 356.26L124.816 329.334L147.922 292.01Z" fill="#FFBE9D"/>
<path d="M132.429 345.741C132.565 345.786 133.201 343.168 134.79 340.322C136.348 337.446 138.209 335.524 138.103 335.418C138.058 335.373 137.543 335.812 136.832 336.629C136.106 337.446 135.198 338.642 134.396 340.11C133.594 341.563 133.065 342.986 132.762 344.03C132.474 345.06 132.384 345.726 132.429 345.741Z" fill="#EB996E"/>
<path d="M41.066 360.604L41.2325 330.529L41.1114 327.578L10.5918 320.449C10.5918 320.449 16.5838 300.697 22.0764 279.477C25.2539 267.217 35.8155 261.072 38.3576 259.741V259.725L38.9174 259.468L68.7864 248.086C74.7178 254.413 82.8736 258.439 91.1957 256.017C95.7502 254.685 99.8962 252.158 102.756 248.601L123.077 254.564V254.579C128.161 256.441 133.548 259.983 136.756 265.674C140.902 272.999 154.126 306.615 154.368 307.357L129.856 309.567C129.856 309.567 134.214 389.104 132.67 403.316C132.67 403.316 126.724 407.433 111.699 408.144C81.2394 409.582 35.8912 407.418 35.8912 407.418C36.6023 402.832 37.3438 395.158 37.7674 391.283L41.066 360.604Z" fill="#FF725E"/>
<path d="M129.024 279.931C128.903 279.931 129.554 298.911 130.477 322.296C131.4 345.695 132.262 364.645 132.383 364.645C132.504 364.645 131.854 345.68 130.931 322.281C130.008 298.881 129.16 279.931 129.024 279.931Z" fill="#263238"/>
<path d="M156.91 295.763L147.438 335.206C146.909 337.386 144.957 338.93 141.825 339.807L88.0936 339.989C85.9299 339.141 83.6148 336.357 84.1746 333.36L91.2258 295.642C91.6495 293.372 93.6014 291.722 95.9013 291.661L152.537 290.36C155.412 290.269 157.576 292.948 156.91 295.763Z" fill="#263238"/>
<path d="M160.452 303.664C161.465 302.499 161.329 300.607 160.376 299.396C159.423 298.185 157.834 297.595 156.291 297.579C154.747 297.564 153.249 298.034 151.827 298.609C150.072 299.335 148.377 300.228 146.788 301.273C145.668 302.014 144.518 302.968 144.322 304.3C144.125 305.632 145.608 307.115 146.758 306.419C145.26 307.1 143.762 308.734 143.565 310.414C143.353 312.094 144.276 312.972 145.911 313.426C144.685 313.941 143.928 315.5 144.534 316.696C145.154 317.937 146.894 318.255 148.195 317.725C149.481 317.195 150.42 316.075 151.297 315C150.404 316.605 150.48 319.193 150.874 320.994C154.429 319.692 157.925 315.727 156.866 311.973C158.59 310.611 159.377 307.796 158.288 305.889C159.725 305.405 161.314 303.164 161.163 301.651" fill="#FFBE9D"/>
<path d="M150.706 321.055C150.676 320.994 151.236 320.646 152.113 320.041C152.976 319.435 154.171 318.572 155.185 317.331C156.199 316.09 156.638 314.698 156.759 313.653C156.865 312.609 156.774 311.958 156.865 311.943C156.91 311.928 157.122 312.579 157.092 313.684C157.061 314.773 156.623 316.317 155.548 317.619C154.489 318.921 153.218 319.768 152.295 320.313C151.342 320.858 150.721 321.1 150.706 321.055Z" fill="#EB996E"/>
<path d="M145.925 313.442C145.971 313.487 146.515 312.972 147.453 312.216C148.376 311.474 149.738 310.445 151.493 310.036C152.356 309.824 153.234 309.809 153.975 309.976C154.732 310.142 155.352 310.475 155.806 310.838C156.729 311.58 156.956 312.337 157.016 312.306C157.031 312.306 157.016 312.11 156.865 311.792C156.729 311.474 156.441 311.05 155.972 310.626C155.503 310.218 154.853 309.824 154.051 309.627C153.249 309.416 152.311 309.431 151.388 309.658C149.526 310.112 148.149 311.217 147.257 312.019C146.379 312.836 145.895 313.396 145.925 313.442Z" fill="#EB996E"/>
<path d="M146.168 306.6C146.198 306.646 146.91 306.358 148.029 305.768C148.589 305.48 149.255 305.147 150.012 304.845C150.768 304.557 151.661 304.3 152.569 304.118C153.492 303.936 154.4 303.891 155.186 304.027C155.973 304.163 156.654 304.466 157.138 304.829C158.152 305.541 158.379 306.358 158.44 306.313C158.455 306.313 158.425 306.101 158.273 305.783C158.122 305.465 157.804 305.011 157.305 304.618C156.805 304.209 156.094 303.846 155.247 303.679C154.4 303.513 153.446 303.543 152.493 303.74C151.54 303.936 150.662 304.194 149.875 304.512C149.089 304.829 148.438 305.208 147.893 305.526C146.819 306.161 146.153 306.555 146.168 306.6Z" fill="#EB996E"/>
<path d="M59.6325 202.377C60.4042 205.056 60.1167 209.491 62.5225 208.885C67.2737 207.689 66.1238 217.422 68.4086 216.468C70.648 215.53 72.6453 212.76 72.7815 206.781C72.9631 199.183 69.9066 193.689 72.9025 184.986C74.915 181.49 78.4859 179.114 82.5108 179.023C86.5357 178.932 90.4245 180.96 92.5882 184.366C93.0119 181.717 94.2981 177.721 96.6737 176.435C99.0341 175.163 102.181 175.315 104.224 177.055C106.252 178.811 106.812 182.156 105.208 184.305C106.282 184.653 107.583 184.199 108.189 183.23C108.294 184.472 107.84 185.743 107.008 186.651C107.977 186.409 108.854 185.804 109.414 184.971C109.172 186.061 108.945 187.166 108.703 188.271C112.698 188.377 116.617 184.502 117.736 181.051C119.416 175.829 118.115 170.547 115.209 165.9C112.289 161.254 107.069 157.969 101.576 158.03C96.0835 158.075 91.4837 160.679 89.3653 165.749C85.8095 163.221 78.5919 162.359 74.6124 164.16C70.6329 165.961 67.7579 169.972 67.3191 174.316C64.8376 173.271 61.8568 174.089 59.7535 175.784C59.5719 175.92 59.4055 176.071 59.2391 176.223C56.3641 178.871 55.199 182.913 55.9253 186.742C56.2128 188.271 56.7424 189.845 57.045 191.056C57.9529 194.703 59.6325 202.377 59.6325 202.377Z" fill="#263238"/>
<path d="M108.794 183.003C108.809 183.019 108.915 182.928 109.112 182.746C109.308 182.564 109.596 182.292 109.898 181.883C110.519 181.096 111.245 179.734 111.472 177.903C111.699 176.117 111.275 173.74 109.611 171.909C108.007 170.093 105.314 168.806 102.469 169.215C101.077 169.412 99.7756 169.972 98.6861 170.698C97.5815 171.425 96.6585 172.318 95.902 173.256C94.3737 175.133 93.4961 177.161 93.0422 178.917C92.5882 180.673 92.5277 182.171 92.5731 183.17C92.6034 183.669 92.6336 184.063 92.6942 184.335C92.7395 184.593 92.7698 184.729 92.7698 184.729C92.8909 184.744 92.3764 182.459 93.3145 178.993C93.7987 177.282 94.6763 175.299 96.1895 173.498C97.6723 171.712 99.8512 170.017 102.529 169.624C105.208 169.245 107.78 170.456 109.323 172.166C110.927 173.892 111.351 176.132 111.184 177.872C111.018 179.643 110.352 180.975 109.777 181.777C109.202 182.61 108.764 182.973 108.794 183.003Z" fill="#455A64"/>
<path d="M110.624 187.181C110.639 187.181 110.73 187.03 110.912 186.727C111.078 186.424 111.335 185.97 111.638 185.38C112.243 184.199 113.151 182.474 113.832 180.173C114.165 179.023 114.422 177.721 114.452 176.299C114.467 174.891 114.271 173.347 113.635 171.864C113.015 170.381 111.895 169.018 110.427 168.05C108.96 167.096 107.204 166.476 105.343 166.37C103.497 166.249 101.681 166.612 100.062 167.217C98.4434 167.838 96.9908 168.701 95.7349 169.684C93.2231 171.652 91.5738 174.18 91.014 176.541C90.4239 178.902 90.8021 180.915 91.2863 182.156C91.5284 182.792 91.8008 183.231 91.9824 183.533C92.1942 183.821 92.3001 183.972 92.3152 183.957C92.3606 183.927 91.8764 183.352 91.4376 182.095C90.9988 180.869 90.6962 178.887 91.2863 176.601C91.8764 174.331 93.4955 171.879 95.9619 169.972C98.398 168.08 101.712 166.551 105.313 166.778C107.098 166.884 108.793 167.475 110.2 168.383C111.608 169.306 112.667 170.592 113.272 172.015C113.892 173.438 114.089 174.921 114.089 176.299C114.074 177.676 113.847 178.962 113.529 180.098C112.894 182.383 112.031 184.108 111.471 185.319C111.199 185.894 110.972 186.349 110.806 186.697C110.685 186.999 110.609 187.181 110.624 187.181Z" fill="#455A64"/>
<path d="M62.9303 196.323C62.9757 196.262 62.0678 195.627 60.9329 194.264C59.7981 192.932 58.4968 190.798 57.9521 188.165C57.4074 185.531 57.7554 183.049 58.2698 181.384C58.7692 179.689 59.3593 178.75 59.2836 178.705C59.2685 178.69 59.1021 178.917 58.8448 179.356C58.5876 179.795 58.285 180.446 57.9824 181.293C57.3922 182.973 56.9837 185.531 57.5435 188.256C58.1034 190.98 59.4955 193.144 60.706 194.461C61.3112 195.127 61.8711 195.596 62.2645 195.899C62.673 196.202 62.9151 196.353 62.9303 196.323Z" fill="#455A64"/>
<path d="M71.4502 196.065C71.4653 196.02 70.9811 195.854 70.2397 195.354C69.5134 194.855 68.5147 193.962 67.8792 192.509L67.4858 191.616L67.5766 192.584C67.6976 193.901 67.8338 195.415 67.9851 197.064L68.2877 196.883C67.1832 196.141 66.1088 195.127 65.2312 193.886C64.1115 192.327 63.4306 190.586 63.1431 188.967C62.8556 187.332 62.9464 185.804 63.1734 184.578C63.6425 182.08 64.5806 180.748 64.4898 180.718C64.4747 180.718 64.4142 180.794 64.3082 180.945C64.2023 181.096 64.0661 181.339 63.8997 181.656C63.5668 182.292 63.1583 183.261 62.8859 184.517C62.6135 185.773 62.4925 187.332 62.7649 189.027C63.0372 190.723 63.7332 192.524 64.8983 194.128C65.8062 195.399 66.9259 196.444 68.0759 197.201L68.4239 197.428L68.3785 197.019C68.1969 195.384 68.0456 193.871 67.9095 192.554L67.6068 192.63C68.3029 194.128 69.3772 195.021 70.164 195.49C70.5574 195.732 70.8903 195.869 71.1173 195.959C71.314 196.05 71.435 196.065 71.4502 196.065Z" fill="#455A64"/>
<path d="M74.0371 176.374C74.1128 176.435 74.5213 175.042 76.2009 173.68C77.0331 173.014 78.1831 172.394 79.56 172.121C80.937 171.834 82.5257 171.97 84.054 172.53C85.5822 173.105 86.8684 174.028 87.8217 175.073C88.7749 176.117 89.4104 177.252 89.8492 178.236C90.6966 180.219 90.7874 181.596 90.863 181.581C90.8933 181.581 90.8933 181.233 90.8025 180.627C90.7117 180.022 90.515 179.144 90.1216 178.115C89.7131 177.101 89.0776 175.92 88.1092 174.815C87.1408 173.71 85.7941 172.727 84.2053 172.136C82.6165 171.546 80.937 171.425 79.4844 171.743C78.0318 172.061 76.8515 172.742 76.0193 173.453C75.172 174.18 74.6575 174.936 74.3852 175.481C74.249 175.754 74.1582 175.981 74.0977 176.132C74.0523 176.283 74.022 176.374 74.0371 176.374Z" fill="#455A64"/>
<path d="M76.2313 169.245C76.2767 169.321 77.1392 168.64 78.8036 168.246C80.4378 167.853 82.9344 167.913 85.2192 169.154C87.504 170.411 88.9718 172.378 89.7586 173.877C90.5757 175.39 90.8329 176.435 90.9086 176.419C90.9388 176.419 90.8934 176.147 90.7572 175.678C90.6362 175.209 90.3941 174.543 90.0158 173.756C89.2744 172.197 87.7915 170.108 85.4159 168.806C83.0252 167.505 80.4075 167.489 78.7279 167.974C77.8806 168.216 77.2299 168.519 76.8214 168.791C76.4129 169.033 76.2161 169.215 76.2313 169.245Z" fill="#455A64"/>
<path d="M44.4247 285.229C44.6365 285.244 44.0313 302.075 43.0478 322.825C42.0642 343.576 41.0958 360.392 40.884 360.392C40.6722 360.377 41.2774 343.546 42.2609 322.795C43.2445 302.044 44.2129 285.229 44.4247 285.229Z" fill="#263238"/>
<path d="M10.455 334.767C11.4537 327.306 12.2707 320.707 12.2707 320.707L36.6774 326.367L35.6333 330.302L54.5019 311.141L57.4828 311.398L66.9852 321.282C66.9852 321.282 58.7084 338.763 53.8967 345.574C47.6324 354.428 37.782 367.929 24.3001 366.809C11.8319 365.75 8.68465 348.162 10.455 334.767Z" fill="#FFBE9D"/>
<path d="M23.6811 339.232C23.5298 339.081 25.7541 336.659 29.0375 334.313C32.321 331.937 35.317 330.605 35.4078 330.787C35.5137 330.983 32.7144 332.618 29.4915 334.949C26.2837 337.265 23.8475 339.399 23.6811 339.232Z" fill="#EB996E"/>
<path d="M87.4426 286.122L79.0599 281.838L68.1806 285.289L62.7939 290.254L54.502 311.126L47.8594 319.526L59.5709 334.782L66.9852 321.251C66.9852 321.251 73.2798 318.497 75.7916 314.531C78.3034 310.566 79.4382 308.401 79.4382 308.401C79.4382 308.401 83.0697 306.661 83.7506 304.981C84.4164 303.301 84.3861 301.999 84.3861 301.999L82.5401 299.32C82.5401 299.32 82.7217 296.823 81.9802 295.899C81.2539 294.961 80.5276 294.749 80.5276 294.749C80.5276 294.749 81.0724 292.479 80.225 291.676C79.3777 290.859 75.2015 289.376 75.2015 289.376L78.8632 287.302C78.8783 287.317 86.9887 289.845 87.4426 286.122Z" fill="#FFBE9D"/>
<path d="M74.9902 293.705C74.9902 293.811 76.2764 293.841 77.8046 294.174C79.348 294.492 80.5283 294.976 80.5736 294.885C80.619 294.81 79.4691 294.159 77.8803 293.826C76.3066 293.478 74.9902 293.614 74.9902 293.705Z" fill="#EB996E"/>
<path d="M77.5158 298.381C77.5158 298.487 78.6204 298.487 79.9368 298.684C81.2683 298.881 82.3124 299.214 82.3426 299.108C82.3729 299.017 81.3591 298.533 79.9822 298.336C78.6204 298.124 77.5006 298.291 77.5158 298.381Z" fill="#EB996E"/>
<path d="M81.0564 305.722C81.1624 305.722 81.2229 305.238 81.2077 304.648C81.1926 304.057 81.1018 303.588 81.011 303.588C80.9051 303.588 80.8446 304.072 80.8597 304.663C80.8749 305.253 80.9656 305.722 81.0564 305.722Z" fill="#EB996E"/>
<path d="M79.4528 307.993C79.5587 307.993 79.483 306.979 80.2245 306.055C80.9356 305.117 81.9343 304.935 81.9192 304.829C81.9192 304.784 81.6468 304.754 81.2534 304.89C80.86 305.011 80.3455 305.329 79.9521 305.828C79.5587 306.328 79.3771 306.903 79.362 307.327C79.3166 307.751 79.4074 307.993 79.4528 307.993Z" fill="#EB996E"/>
<path d="M72.9018 301.288C72.9926 301.333 73.3557 300.395 74.3695 299.85C75.3682 299.275 76.3517 299.456 76.3517 299.35C76.3668 299.305 76.1398 299.199 75.7313 299.169C75.3228 299.138 74.7478 299.229 74.2031 299.532C73.6583 299.835 73.2649 300.289 73.0833 300.652C72.8715 301.03 72.8564 301.288 72.9018 301.288Z" fill="#EB996E"/>
<path d="M69.0731 296.656C69.1639 296.701 69.4968 295.824 70.4198 295.264C71.3276 294.673 72.2506 294.734 72.2506 294.628C72.2506 294.583 72.0237 294.507 71.6454 294.507C71.2671 294.507 70.7224 294.643 70.2231 294.961C69.7237 295.279 69.3908 295.718 69.2244 296.051C69.058 296.399 69.0428 296.641 69.0731 296.656Z" fill="#EB996E"/>
<path d="M66.5171 294.371C66.5776 294.355 66.5473 294.083 66.6079 293.644C66.6684 293.22 66.8348 292.63 67.2131 292.1C67.6065 291.586 68.121 291.253 68.5144 291.071C68.9078 290.889 69.1802 290.829 69.1802 290.783C69.1802 290.738 68.8775 290.708 68.4236 290.844C67.9697 290.965 67.3644 291.313 66.9256 291.903C66.4868 292.494 66.3355 293.175 66.3506 293.644C66.3506 294.113 66.4717 294.386 66.5171 294.371Z" fill="#EB996E"/>
<path d="M70.0723 288.922C70.0723 289.043 71.8275 289.073 73.9458 289.406C76.0642 289.739 77.6681 290.481 77.7135 290.375C77.7589 290.299 76.1853 289.391 74.0064 289.058C72.9321 288.876 71.9334 288.846 71.2222 288.846C70.5111 288.846 70.0723 288.876 70.0723 288.922Z" fill="#EB996E"/>
<path d="M662.005 665.554C662.005 665.766 516.669 665.948 337.41 665.948C158.105 665.948 12.7852 665.766 12.7852 665.554C12.7852 665.342 158.09 665.161 337.41 665.161C516.654 665.161 662.005 665.327 662.005 665.554Z" fill="#263238"/>
<path d="M531.485 534.586C525.478 530.818 518.608 528.456 511.557 527.73C508.304 527.397 504.748 527.488 502.13 529.471C501.571 529.894 501.041 530.515 501.162 531.196C501.253 531.695 501.676 532.059 502.085 532.377C510.195 538.552 522.467 539.339 531.485 534.586Z" fill="#FF725E"/>
<path d="M530.985 534.026C526.476 530.5 521.936 526.958 518.108 522.705C514.28 518.452 511.178 513.381 510.043 507.781C509.695 506.086 509.589 504.134 510.679 502.787C520.938 510.793 528.987 521.161 530.985 534.026Z" fill="#FF725E"/>
<path d="M531.377 534.511C530.606 528.895 530.333 523.129 531.619 517.604C532.906 512.08 535.902 506.813 540.622 503.665C542.393 507.812 541.636 512.579 540.38 516.908C538.444 523.598 535.417 529.97 531.453 535.706" fill="#FF725E"/>
<path d="M541.44 552.537C535.342 553.279 530.016 556.503 525.461 560.619C520.907 564.751 517.669 570.306 516.322 576.315C522.314 575.952 527.383 571.714 531.075 566.992C534.752 562.254 537.309 557.063 541.364 552.628" fill="#FF725E"/>
<path d="M543.62 555.428C538.702 543.32 540.488 528.714 548.174 518.134C551.655 530.515 550.368 544.485 543.62 555.428Z" fill="#FF725E"/>
<path d="M556.905 571.245C551.367 570.896 545.738 572.228 540.926 574.998C536.115 577.768 532.15 581.976 529.654 586.94C529.321 587.621 529.018 588.469 529.472 589.074C529.866 589.604 530.622 589.649 531.273 589.604C536.644 589.256 541.396 586.017 545.33 582.339C549.264 578.661 552.683 574.408 557.011 571.229" fill="#FF725E"/>
<path d="M556.481 570.382C553.621 561.24 553.439 551.266 555.981 542.018C556.98 538.37 558.66 534.526 562.034 532.815C562.321 532.664 562.654 532.543 562.957 532.649C563.244 532.755 563.411 533.058 563.547 533.33C564.742 535.843 565.09 538.688 564.969 541.473C564.848 544.258 564.273 546.982 563.698 549.707C562.639 554.747 562.064 560.15 559.31 564.494C558.66 565.523 558.085 566.643 557.555 567.748C557.025 568.853 557.025 569.247 556.556 570.124" fill="#FF725E"/>
<path d="M591.66 575.634C589.058 565.72 591.827 553.703 598.061 545.575C598.515 544.969 599.135 544.334 599.877 544.409C601.026 544.515 601.329 546.044 601.269 547.21C600.83 557.32 597.456 567.31 591.66 575.634Z" fill="#FF725E"/>
<path d="M594.824 577.798C606.869 580.931 620.683 577.889 630.7 570.503C624.769 567.491 617.763 566.628 611.287 568.112C604.796 569.595 598.864 572.501 594.824 577.798Z" fill="#FF725E"/>
<path d="M597.502 571.199C604.25 560.196 617.172 553.021 630.064 552.371C628.581 557.608 624.269 561.679 619.412 564.146C614.555 566.613 609.123 567.673 603.781 568.717C601.708 569.11 598.849 569.565 597.502 571.199Z" fill="#FF725E"/>
<path d="M592.327 539.157C594.158 532.891 595.989 526.58 596.488 520.086C596.987 513.593 596.064 506.797 592.69 501.228C586.396 513.427 585.76 527.669 592.13 539.823" fill="#FF725E"/>
<path d="M613.541 528.441C620.91 515.046 635.935 504.346 651.142 502.847C645.271 517.453 629.277 528.759 613.541 528.441Z" fill="#FF725E"/>
<path d="M608.895 531.06C619.88 532.74 629.246 539.747 639.505 544.016C641.699 544.924 644.075 545.65 646.42 545.348C648.78 545.045 651.095 543.456 651.625 541.14C652.064 539.218 651.186 537.174 649.809 535.767C648.432 534.359 646.601 533.481 644.786 532.709C633.604 528.048 621.605 527.942 609.833 530.757" fill="#FF725E"/>
<path d="M602.541 538.764C605.023 539.475 605.885 540.762 607.852 542.442C614.54 548.133 622.544 552.25 631.063 554.368C631.956 554.596 633.121 554.671 633.56 553.869C633.938 553.173 633.454 552.325 632.955 551.705C629.384 547.24 624.3 544.182 618.943 542.184C613.587 540.187 608.942 537.78 602.541 538.295" fill="#FF725E"/>
<path d="M595.367 492.222C604.295 500.562 616.884 504.845 629.049 503.68C629.609 503.634 630.199 503.544 630.578 503.135C631.425 502.212 630.411 500.789 629.428 500.017C619.532 492.283 607.533 489.089 595.367 492.222Z" fill="#FF725E"/>
<path d="M603.871 489.104C615.673 480.25 631.879 477.571 645.906 482.172C640.61 487.394 633.271 490.194 625.872 490.966C618.488 491.723 611.089 490.905 603.871 489.104Z" fill="#FF725E"/>
<path d="M600.498 467.702C599.53 457.819 600.15 450.009 599.469 440.08C599.409 439.293 599.242 438.324 598.501 438.052C597.472 437.658 596.61 438.93 596.262 439.974C593.311 449.131 594.93 459.635 600.483 467.491" fill="#FF725E"/>
<path d="M599.787 468.792C606.49 464.645 611.514 459.242 616.159 452.87C619.397 448.45 622.121 443.138 621.379 437.704C616.84 437.613 612.528 440.126 609.562 443.577C606.611 447.028 604.856 451.341 603.54 455.7C602.238 460.059 601.33 464.524 599.787 468.792Z" fill="#FF725E"/>
<path d="M615.87 464.327C630.578 458.894 644.286 450.796 656.164 440.565C651.353 438.627 645.845 439.793 641.033 441.73C630.033 446.165 621.06 453.657 615.658 464.221" fill="#FF725E"/>
<path d="M604.311 474.211C611.755 475.028 619.306 475.558 626.69 474.317C633.937 473.106 640.807 470.23 647.586 467.37C648.146 467.127 648.766 466.855 649.008 466.295C649.28 465.69 648.993 464.948 648.494 464.509C648.009 464.07 647.344 463.858 646.708 463.677C639.339 461.618 631.38 462.587 624.132 465.024C616.869 467.476 610.938 470.382 604.311 474.211Z" fill="#FF725E"/>
<path d="M561.837 492.555C556.768 482.308 557.086 470.351 561.474 459.787C564.561 464.494 564.939 470.487 564.379 476.072C563.82 481.673 562.11 487.439 562.004 493.055" fill="#FF725E"/>
<path d="M541.562 482.323C528.897 482.081 516.217 487.485 507.607 496.793C513.932 497.792 520.439 496.157 526.204 493.342C531.954 490.527 537.068 486.592 542.137 482.672" fill="#FF725E"/>
<path d="M527.928 477.768C521.724 477.268 515.763 476.496 509.801 478.328C503.839 480.159 498.422 484.306 495.986 490.043C501.782 490.693 507.668 489.24 512.979 486.834C518.29 484.412 523.132 481.082 527.928 477.768Z" fill="#FF725E"/>
<path d="M548.113 477.98C542.529 474.317 536.81 470.609 530.318 469.095C523.827 467.581 516.307 468.701 511.768 473.59C517.018 476.678 523.403 477.041 529.501 477.041C535.599 477.041 543.074 476.965 548.809 478.994" fill="#FF725E"/>
<path d="M548.145 478.267C538.612 468.898 534.995 452.083 538.839 439.278C546.329 450.66 549.673 464.721 548.145 478.267Z" fill="#FF725E"/>
<path d="M574.352 451.735C576.152 447.557 577.408 443.168 579.027 438.915C580.646 434.662 582.643 430.469 585.7 427.094C588.741 423.719 592.963 421.191 597.502 420.979C594.658 433.86 586.109 445.378 574.579 451.81" fill="#FF725E"/>
<path d="M569.615 457.259C566.634 453.157 563.199 447.602 559.159 444.545C555.119 441.488 549.869 439.641 544.951 440.807C549.96 449.767 559.417 456.078 569.615 457.259Z" fill="#FF725E"/>
<path d="M570.569 452.067C568.617 447.103 566.65 442.093 565.863 436.826C565.076 431.559 565.56 425.928 568.254 421.327C573.489 431.226 575.169 441.851 570.841 452.173" fill="#FF725E"/>
<path d="M574.396 421.342C577.362 411.535 586.335 404.315 596.034 401C597.26 400.576 598.546 400.228 599.832 400.425C601.103 400.622 602.359 401.5 602.631 402.756C602.979 404.421 601.602 405.919 600.316 407.024C592.766 413.502 583.884 418.391 574.396 421.342Z" fill="#FF725E"/>
<path d="M574.517 413.321C574.895 406.994 575.288 400.577 577.346 394.583C579.404 388.589 583.368 382.974 589.133 380.34C590.117 386.728 587.302 393.084 583.898 398.579C580.493 404.073 576.408 409.264 574.365 415.394" fill="#FF725E"/>
<path d="M574.35 417.68C571.899 410.536 571.642 401.454 567.375 395.219C564.379 390.859 559.597 387.893 557.01 383.292C555.3 387.605 555.814 392.555 557.615 396.838C559.4 401.106 562.366 404.799 565.529 408.175C568.706 411.55 571.415 414.093 574.35 417.68Z" fill="#FF725E"/>
<path d="M574.395 628.215C574.199 628.215 574.047 580.523 574.032 521.706C574.017 462.874 574.168 415.182 574.35 415.182C574.547 415.182 574.698 462.859 574.713 521.706C574.744 580.523 574.592 628.215 574.395 628.215Z" fill="#263238"/>
<path d="M616.068 485.35C616.083 485.396 615.447 485.638 614.282 486.016C612.996 486.455 611.332 487.015 609.349 487.681C605.188 489.104 599.469 491.147 593.28 493.69C587.137 496.324 581.342 498.458 578.043 501.318C576.394 502.726 575.456 504.255 574.986 505.375C574.517 506.495 574.427 507.176 574.366 507.161C574.336 507.161 574.351 506.979 574.381 506.661C574.442 506.343 574.517 505.859 574.729 505.269C575.138 504.088 576.046 502.454 577.71 500.955C579.375 499.442 581.674 498.079 584.322 496.853C586.97 495.612 589.891 494.326 593.008 493.054C599.227 490.512 604.992 488.514 609.198 487.212C611.301 486.561 613.011 486.077 614.207 485.759C615.387 485.456 616.053 485.305 616.068 485.35Z" fill="#263238"/>
<path d="M629.731 451.795C629.746 451.81 629.58 451.992 629.232 452.325C628.823 452.703 628.324 453.187 627.704 453.763C626.281 455.049 624.344 456.805 621.999 458.954C617.066 463.343 610.378 469.307 602.994 475.891C595.58 482.505 589.164 488.816 584.716 493.569C582.492 495.945 580.736 497.913 579.541 499.275C578.981 499.911 578.527 500.441 578.164 500.849C577.846 501.212 577.665 501.394 577.65 501.379C577.634 501.364 577.771 501.152 578.058 500.774C578.346 500.395 578.769 499.82 579.344 499.109C580.479 497.686 582.174 495.658 584.368 493.236C588.726 488.393 595.111 482.005 602.54 475.376C609.985 468.777 616.764 462.859 621.681 458.591C624.102 456.517 626.085 454.822 627.537 453.566C628.188 453.021 628.717 452.582 629.156 452.219C629.504 451.931 629.716 451.78 629.731 451.795Z" fill="#263238"/>
<path d="M594.96 482.611C594.764 482.52 596.322 478.948 597.865 474.423C599.424 469.897 600.165 466.068 600.362 466.113C600.544 466.128 600.105 470.064 598.531 474.65C597.759 476.935 596.897 478.948 596.216 480.386C595.535 481.794 595.051 482.656 594.96 482.611Z" fill="#263238"/>
<path d="M574.441 511.474C574.396 511.505 574.003 511.035 573.291 510.142C572.52 509.143 571.536 507.887 570.356 506.389C567.89 503.21 564.5 498.821 560.687 494.008C556.874 489.195 553.364 484.896 550.822 481.778C549.626 480.295 548.627 479.054 547.826 478.07C547.13 477.192 546.751 476.693 546.797 476.663C546.827 476.632 547.266 477.071 548.037 477.904C548.794 478.736 549.883 479.947 551.2 481.476C553.833 484.518 557.404 488.786 561.232 493.599C565.045 498.412 568.389 502.862 570.764 506.116C571.945 507.751 572.883 509.083 573.518 510.006C574.154 510.929 574.487 511.459 574.441 511.474Z" fill="#263238"/>
<path d="M565.317 499.744C565.211 499.865 562.76 496.975 561.489 492.57C560.551 489.467 560.505 486.637 560.626 485.351L560.929 485.381C560.793 485.926 560.687 486.228 560.642 486.213C560.581 486.198 560.581 485.895 560.626 485.335L560.929 485.366C561.035 486.652 561.232 489.392 562.155 492.389C563.38 496.642 565.499 499.638 565.317 499.744Z" fill="#263238"/>
<path d="M553.515 484.912C553.424 485.002 552.637 484.019 550.836 483.353C549.051 482.656 546.373 482.505 543.422 482.762C540.471 482.974 537.839 483.504 535.947 483.973C534.056 484.442 532.906 484.806 532.876 484.715C532.845 484.639 533.935 484.109 535.826 483.504C537.702 482.914 540.366 482.293 543.377 482.081C546.357 481.824 549.187 482.051 551.033 482.914C552.894 483.731 553.575 484.897 553.515 484.912Z" fill="#263238"/>
<path d="M550.716 481.309C550.671 481.415 549.158 480.689 546.616 479.811C544.089 478.933 540.473 478.025 536.402 477.707C532.332 477.404 528.625 477.752 525.992 478.237C523.359 478.706 521.755 479.205 521.725 479.084C521.71 479.039 522.103 478.873 522.814 478.615C523.526 478.343 524.585 478.04 525.901 477.752C528.549 477.147 532.317 476.708 536.463 477.011C540.609 477.329 544.271 478.343 546.797 479.342C548.053 479.841 549.052 480.295 549.718 480.674C550.384 481.052 550.747 481.264 550.716 481.309Z" fill="#263238"/>
<path d="M574.35 466.098C574.168 466.144 572.822 461.497 571.369 455.73C569.901 449.949 568.872 445.226 569.054 445.181C569.236 445.136 570.582 449.782 572.035 455.549C573.503 461.331 574.547 466.053 574.35 466.098Z" fill="#263238"/>
<path d="M574.548 466.098C574.336 466.159 573.489 463.056 571.235 459.893C569.056 456.654 566.256 455.019 566.362 454.868C566.393 454.792 567.164 455.08 568.239 455.836C569.313 456.593 570.644 457.849 571.794 459.499C574.125 462.799 574.715 466.098 574.548 466.098Z" fill="#263238"/>
<path d="M574.397 602.787C574.321 602.802 574.185 601.637 573.64 599.609C573.111 597.58 572.112 594.705 570.448 591.345C567.149 584.609 561.157 576.073 553.546 567.521C549.779 563.208 546.117 559.136 543 555.246C539.883 551.357 537.326 547.648 535.464 544.364C533.588 541.095 532.378 538.279 531.651 536.297C531.303 535.298 531.046 534.526 530.91 533.981C530.759 533.451 530.698 533.164 530.713 533.164C530.774 533.149 531.122 534.253 531.909 536.206C532.695 538.143 533.966 540.913 535.888 544.122C537.795 547.346 540.382 550.993 543.499 554.853C546.616 558.712 550.293 562.754 554.061 567.082C561.702 575.649 567.679 584.307 570.887 591.148C572.506 594.569 573.444 597.49 573.898 599.548C574.125 600.577 574.261 601.379 574.321 601.939C574.397 602.5 574.427 602.787 574.397 602.787Z" fill="#263238"/>
<path d="M612.057 560.256C612.073 560.301 611.361 560.665 610.09 561.361C608.819 562.072 607.034 563.162 604.976 564.751C602.918 566.325 600.618 568.399 598.258 570.881C595.897 573.379 593.461 576.269 590.995 579.372C586.032 585.593 581.402 591.102 578.617 595.507C577.21 597.686 576.181 599.533 575.516 600.819C574.835 602.106 574.487 602.832 574.426 602.802C574.411 602.787 574.471 602.605 574.608 602.242C574.759 601.894 574.956 601.349 575.273 600.698C575.879 599.366 576.847 597.474 578.209 595.249C580.902 590.754 585.502 585.169 590.465 578.948C592.947 575.846 595.413 572.94 597.819 570.457C600.225 567.975 602.585 565.917 604.704 564.373C606.822 562.829 608.683 561.785 609.984 561.134C610.635 560.801 611.165 560.604 611.528 560.453C611.846 560.302 612.042 560.226 612.057 560.256Z" fill="#263238"/>
<path d="M612.785 574.06C612.8 574.166 611.196 574.347 608.608 574.665C606.036 574.998 602.465 575.422 598.713 576.618C594.975 577.829 591.873 579.69 589.861 581.264C587.818 582.838 586.85 584.155 586.759 584.064C586.729 584.034 586.925 583.686 587.379 583.111C587.818 582.521 588.559 581.749 589.558 580.886C591.54 579.176 594.672 577.208 598.516 575.952C602.359 574.741 605.976 574.378 608.563 574.181C611.166 573.984 612.785 573.969 612.785 574.06Z" fill="#263238"/>
<path d="M587.983 582.551C587.771 582.43 589.648 579.554 591.1 575.694C592.462 571.789 592.795 568.384 593.037 568.414C593.128 568.429 593.128 569.277 592.961 570.654C592.795 572.017 592.462 573.924 591.751 575.922C591.025 577.919 590.071 579.599 589.33 580.765C588.589 581.93 588.074 582.596 587.983 582.551Z" fill="#263238"/>
<path d="M624.254 523.205C624.269 523.22 624.027 523.356 623.588 523.553C623.073 523.795 622.423 524.082 621.621 524.446C620.758 524.809 619.714 525.278 618.549 525.899C617.369 526.504 615.992 527.14 614.57 527.987C613.843 528.396 613.087 528.835 612.3 529.274C611.513 529.728 610.726 530.273 609.894 530.787C608.215 531.802 606.535 533.058 604.75 534.344C601.239 537.008 597.547 540.156 593.991 543.804C590.466 547.482 587.455 551.281 584.897 554.883C583.687 556.715 582.491 558.44 581.523 560.15C581.039 560.998 580.524 561.8 580.101 562.602C579.677 563.404 579.269 564.176 578.89 564.918C578.073 566.371 577.498 567.779 576.938 568.974C576.363 570.17 575.925 571.23 575.592 572.092C575.259 572.894 574.986 573.56 574.775 574.075C574.578 574.529 574.472 574.756 574.442 574.756C574.427 574.741 574.487 574.499 574.638 574.03C574.82 573.485 575.062 572.819 575.35 571.986C575.652 571.093 576.046 570.019 576.59 568.808C577.12 567.582 577.68 566.174 578.467 564.691C578.845 563.934 579.238 563.147 579.647 562.33C580.07 561.513 580.57 560.71 581.054 559.848C581.992 558.107 583.188 556.366 584.398 554.505C586.925 550.857 589.966 547.013 593.507 543.305C597.093 539.642 600.815 536.463 604.371 533.815C606.187 532.543 607.897 531.302 609.591 530.288C610.439 529.773 611.226 529.244 612.028 528.805C612.83 528.366 613.601 527.942 614.343 527.548C615.795 526.716 617.202 526.111 618.398 525.535C619.593 524.945 620.652 524.506 621.53 524.188C622.347 523.87 623.013 523.613 623.542 523.416C623.996 523.265 624.238 523.189 624.254 523.205Z" fill="#263238"/>
<path d="M594.444 543.183C594.384 543.168 594.717 542.018 596.078 540.747C597.41 539.475 599.846 538.295 602.676 538.219C605.505 538.143 607.956 538.93 609.621 539.581C611.3 540.247 612.284 540.777 612.254 540.852C612.208 540.943 611.164 540.565 609.47 540.035C607.775 539.521 605.384 538.839 602.706 538.9C600.043 538.976 597.743 540.005 596.396 541.11C595.034 542.2 594.565 543.244 594.444 543.183Z" fill="#263238"/>
<path d="M589.996 547.77C589.815 547.664 591.494 545.196 591.872 541.67C592.311 538.143 591.237 535.358 591.449 535.298C591.524 535.268 591.903 535.918 592.22 537.069C592.553 538.219 592.765 539.899 592.553 541.746C592.341 543.577 591.736 545.166 591.161 546.211C590.571 547.27 590.057 547.815 589.996 547.77Z" fill="#263238"/>
<path d="M541.471 609.628C542.5 627.851 547.992 646.392 556.435 665.13H593.159C601.209 646.574 606.323 628.063 607.231 609.628H541.471Z" fill="#455A64"/>
<path d="M601.284 639.112C601.284 639.309 589.194 639.46 574.275 639.46C559.355 639.46 547.266 639.309 547.266 639.112C547.266 638.916 559.355 638.764 574.275 638.764C589.194 638.779 601.284 638.931 601.284 639.112Z" fill="#FAFAFA"/>
<path d="M600.467 645.727C600.467 645.923 589.134 646.075 575.152 646.075C561.171 646.075 549.838 645.923 549.838 645.727C549.838 645.53 561.171 645.378 575.152 645.378C589.134 645.378 600.467 645.53 600.467 645.727Z" fill="#FAFAFA"/>
</g>
<defs>
<clipPath id="clip0_322_1267">
<rect width="666" height="688" fill="white"/>
</clipPath>
</defs>
</svg>
