<svg width="32" height="32" viewBox="0 0 32 32" fill="none" xmlns="http://www.w3.org/2000/svg">
<path d="M14.745 0H0V14.745L16.485 31.245C16.485 31.245 18.06 29.67 18.6 29.115L31.23 16.5L14.745 0ZM5.25 7.5C4.005 7.5 3 6.495 3 5.25C3 4.005 4.005 3 5.25 3C6.495 3 7.5 4.005 7.5 5.25C7.5 6.495 6.495 7.5 5.25 7.5ZM16.5 26.31L10.095 19.905C9.42 19.215 9 18.285 9 17.25C9 15.18 10.68 13.5 12.75 13.5C13.785 13.5 14.73 13.92 15.405 14.61L16.5 15.69L17.595 14.595C18.27 13.92 19.215 13.5 20.25 13.5C22.32 13.5 24 15.18 24 17.25C24 18.285 23.58 19.23 22.905 19.905L16.5 26.31Z" fill="#8B91AB"/>
</svg>
