<svg width="123" height="45" viewBox="0 0 123 45" fill="none" xmlns="http://www.w3.org/2000/svg">
<path d="M1.75683 45C1.41549 45 1.09549 44.872 0.796827 44.616C0.540827 44.36 0.412827 44.04 0.412827 43.656L0.540827 43.08L15.9648 1.8C16.2635 0.733331 17.0102 0.199997 18.2048 0.199997H25.1808C26.2902 0.199997 27.0368 0.733331 27.4208 1.8L42.8448 43.08C42.8875 43.208 42.9088 43.4 42.9088 43.656C42.9088 44.04 42.7808 44.36 42.5248 44.616C42.2688 44.872 41.9702 45 41.6288 45H36.0608C35.5062 45 35.0795 44.872 34.7808 44.616C34.4822 44.36 34.2902 44.0827 34.2048 43.784L31.1968 35.976H12.1888L9.18083 43.784C8.83949 44.5947 8.22083 45 7.32483 45H1.75683ZM28.9568 28.616L21.6608 8.84L14.4288 28.616H28.9568Z" fill="#1FAD4B"/>
<path d="M51.4294 45C51.0028 45 50.6401 44.8507 50.3414 44.552C50.0428 44.2533 49.8934 43.8907 49.8934 43.464V1.8C49.8934 1.33066 50.0214 0.946664 50.2774 0.647999C50.5761 0.349331 50.9601 0.199997 51.4294 0.199997H79.2054C79.6748 0.199997 80.0588 0.349331 80.3574 0.647999C80.6561 0.946664 80.8054 1.33066 80.8054 1.8V6.28C80.8054 6.74933 80.6561 7.13333 80.3574 7.432C80.0588 7.688 79.6748 7.816 79.2054 7.816H58.6614V19.976H77.9254C78.3948 19.976 78.7788 20.1253 79.0774 20.424C79.3761 20.7227 79.5254 21.1067 79.5254 21.576V26.056C79.5254 26.5253 79.3761 26.9093 79.0774 27.208C78.7788 27.464 78.3948 27.592 77.9254 27.592H58.6614V43.464C58.6614 43.9333 58.5121 44.3173 58.2134 44.616C57.9148 44.872 57.5308 45 57.0614 45H51.4294Z" fill="#0E82DA"/>
<path d="M90.8766 45C90.4499 45 90.0872 44.8507 89.7886 44.552C89.4899 44.2533 89.3406 43.8907 89.3406 43.464V1.736C89.3406 1.26666 89.4899 0.903998 89.7886 0.647999C90.0872 0.349331 90.4499 0.199997 90.8766 0.199997H96.8286C97.2979 0.199997 97.6606 0.349331 97.9166 0.647999C98.2152 0.903998 98.3646 1.26666 98.3646 1.736V37.384H118.653C119.122 37.384 119.506 37.5333 119.805 37.832C120.103 38.1307 120.253 38.5147 120.253 38.984V43.464C120.253 43.9333 120.103 44.3173 119.805 44.616C119.506 44.872 119.122 45 118.653 45H90.8766Z" fill="#FF8B0E"/>
</svg>
