<svg width="34" height="32" viewBox="0 0 34 32" fill="none" xmlns="http://www.w3.org/2000/svg">
<path d="M33.5 16L29.84 11.815L30.35 6.28L24.935 5.05L22.1 0.25L17 2.44L11.9 0.25L9.065 5.035L3.65 6.25L4.16 11.8L0.5 16L4.16 20.185L3.65 25.735L9.065 26.965L11.9 31.75L17 29.545L22.1 31.735L24.935 26.95L30.35 25.72L29.84 20.185L33.5 16ZM14.135 23.08L8.435 17.365L10.655 15.145L14.135 18.64L22.91 9.835L25.13 12.055L14.135 23.08Z" fill="url(#paint0_linear_336_772)"/>
<defs>
<linearGradient id="paint0_linear_336_772" x1="11.304" y1="23.239" x2="35.4963" y2="4.46904" gradientUnits="userSpaceOnUse">
<stop stop-color="#2D8F60"/>
<stop offset="0.907292" stop-color="#12C971"/>
</linearGradient>
</defs>
</svg>
