<svg width="40" height="37" viewBox="0 0 40 37" fill="none" xmlns="http://www.w3.org/2000/svg">
<path d="M20 0.478271C17.2727 0.478271 15.142 1.43842 13.608 3.35871C12.0739 5.279 11.3068 7.73371 11.3068 10.7228C11.2879 14.4366 12.5379 17.3804 15.0568 19.5544C15.3788 19.8442 15.4924 20.2156 15.3977 20.6685L14.7443 21.9728C14.536 22.4076 14.2282 22.7473 13.821 22.9919C13.4138 23.2364 12.5568 23.5852 11.25 24.0381C11.1932 24.0562 9.99527 24.4275 7.65625 25.1522C5.31723 25.8768 4.07197 26.2754 3.92045 26.3478C2.32955 26.9819 1.28788 27.6431 0.795455 28.3315C0.265152 29.4728 0 32.3623 0 37H40C40 32.3623 39.7348 29.4728 39.2045 28.3315C38.7121 27.6431 37.6705 26.9819 36.0795 26.3478C35.928 26.2754 34.6828 25.8768 32.3438 25.1522C30.0047 24.4275 28.8068 24.0562 28.75 24.0381C27.4432 23.5852 26.5862 23.2364 26.179 22.9919C25.7718 22.7473 25.464 22.4076 25.2557 21.9728L24.6023 20.6685C24.5076 20.2156 24.6212 19.8442 24.9432 19.5544C27.4621 17.3804 28.7121 14.4366 28.6932 10.7228C28.6932 7.73371 27.9261 5.279 26.392 3.35871C24.858 1.43842 22.7273 0.478271 20 0.478271Z" fill="#8B91AB"/>
</svg>
