<svg width="20" height="20" viewBox="0 0 20 20" fill="none" xmlns="http://www.w3.org/2000/svg">
<path opacity="0.4" d="M19.0393 12.3321L17.3752 11.3711C17.5432 10.4649 17.5432 9.53519 17.3752 8.62894L19.0393 7.668C19.2307 7.55863 19.3166 7.33207 19.2541 7.12113C18.8205 5.7305 18.0823 4.47269 17.1174 3.42582C16.969 3.26566 16.7268 3.2266 16.5393 3.33597L14.8752 4.29691C14.176 3.69535 13.3713 3.23051 12.5002 2.92582V1.00785C12.5002 0.789099 12.3479 0.597693 12.133 0.550818C10.6995 0.230505 9.2307 0.24613 7.86742 0.550818C7.65258 0.597693 7.50024 0.789099 7.50024 1.00785V2.92972C6.63305 3.23832 5.82836 3.70316 5.12524 4.30082L3.46508 3.33988C3.27368 3.23051 3.03539 3.26566 2.88696 3.42972C1.92211 4.47269 1.18383 5.7305 0.750239 7.12504C0.683833 7.33597 0.773677 7.56254 0.965083 7.67191L2.62914 8.63285C2.46118 9.5391 2.46118 10.4688 2.62914 11.375L0.965083 12.336C0.773677 12.4453 0.687739 12.6719 0.750239 12.8828C1.18383 14.2735 1.92211 15.5313 2.88696 16.5782C3.03539 16.7383 3.27758 16.7774 3.46508 16.668L5.12914 15.7071C5.82836 16.3086 6.63305 16.7735 7.50414 17.0782V19C7.50414 19.2188 7.65649 19.4102 7.87133 19.4571C9.30492 19.7774 10.7737 19.7618 12.137 19.4571C12.3518 19.4102 12.5041 19.2188 12.5041 19V17.0782C13.3713 16.7696 14.176 16.3047 14.8791 15.7071L16.5432 16.668C16.7346 16.7774 16.9729 16.7422 17.1213 16.5782C18.0862 15.5352 18.8244 14.2774 19.258 12.8828C19.3166 12.668 19.2307 12.4414 19.0393 12.3321ZM10.0002 13.125C8.27758 13.125 6.87524 11.7227 6.87524 10C6.87524 8.27738 8.27758 6.87504 10.0002 6.87504C11.7229 6.87504 13.1252 8.27738 13.1252 10C13.1252 11.7227 11.7229 13.125 10.0002 13.125Z" fill="#F7F9FF"/>
</svg>
